<?xml version="1.0" encoding="utf-8"?>
<!-- Generator: Adobe Illustrator 25.1.0, SVG Export Plug-In . SVG Version: 6.00 Build 0)  -->
<svg version="1.1" id="Vrstva_1" xmlns="http://www.w3.org/2000/svg" xmlns:xlink="http://www.w3.org/1999/xlink" x="0px" y="0px"
	 viewBox="0 0 341.3 111.8" style="enable-background:new 0 0 341.3 111.8;" xml:space="preserve">
<style type="text/css">
	.st0{fill-rule:evenodd;clip-rule:evenodd;fill:#EABB23;}
	.st1{fill:#1F305A;}
	.st2{fill:#21315A;}
</style>
<path class="st0" d="M154.4,16.9c-0.6-0.8-0.6-1.5,0.1-2.1c0.7-0.7,2.1-0.8,3-0.3c0.8,0.5,0.9,1.2,0.5,2c1,0.1,2.2,0.1,2.1,1.4
	c-0.1,1.2-1.3,1.3-2.4,1.4c0.6,2.1,1.4,3.9,3.1,5.3c1.9,1.5,4.4,1.2,5.5-1c0.9-1.7,1.4-3.7,1.9-5.6c0.2-0.8,0.2-1.6,0.3-2.4
	c-0.4,0-0.7-0.1-1.1-0.1c-0.2-1.1,0.2-2,1-2.6c0.9-0.8,0.5-1.6,0.1-2.3c-0.3-0.5-1-0.9-1.5-1c-0.8-0.1-1.4,0.6-1.5,1.4
	c-0.2,1.9-1.5,2.8-3.4,3.5c1.2-1.9,0.6-3.3-0.3-4.8c-0.8-1.5-0.4-2.7,1.3-3.2c1.4-0.4,2.9-0.4,4.4-0.6c-0.6-1.6,0.4-2.7,1.6-3.8
	c0.7-0.7,1.2-1.5,1.7-2.2c0.8,0.9,1.6,1.9,2.5,2.8c1,1,1.3,2.1,0.8,3.4c1.3,0,2.6-0.1,3.8,0c0.6,0.1,1.2,0.5,1.7,0.9
	c0.7,0.5,0.9,1.2,0.6,2c-0.1,0.3-0.3,0.7-0.5,1c-0.8,1.3-1.1,2.7-0.1,4.1c-1.7-0.2-3.2-1.5-3.3-3.1c-0.1-1-0.5-1.6-1.4-1.6
	c-0.5,0-1.3,0.3-1.5,0.7c-0.4,0.7-0.9,1.6,0,2.5c0.6,0.6,0.9,1.6,1.4,2.5c-0.7,0.1-1.1,0.1-1.5,0.2c0.3,2.8,0.7,5.5,2.1,7.9
	c1.4,2.4,4,2.7,6,0.8c1.4-1.3,2.2-3,2.7-4.9c-1-0.2-2.3-0.2-2.3-1.6c0-1.1,1-1.3,2.1-1.2c-0.3-0.9-0.4-1.7,0.6-2.2
	c0.9-0.4,2.3-0.2,3,0.4c0.5,0.6,0.5,1.1,0,2c0.8,0.3,2,0.6,1.6,1.8c-0.4,1.2-1.5,1-2.6,0.9c0.1,2.3,0.5,4.5,2.1,6.2
	c1.6,1.7,3.9,1.6,5.5-0.3c2.1-2.3,3.3-5.2,4.2-8.1c0.7-2.1-1.6-4.1-3.8-3.5c-0.3,0.1-0.6,0.2-0.9,0.3c0.8-2.1,2.2-2.3,6.4-1.1
	c-1.1-3.1,1.8-4.2,3-6.1c1.9,1.9,2.4,5.1,1.1,7.5c-0.4,0.8-1,1.7-1.7,2.1c-1.8,1.1-2.2,2.8-2.6,4.7c-0.7,3.4-1.5,6.7-2.4,10.2
	c-17.7-4.1-35.3-4-53,0c-0.8-3.6-1.7-7.1-2.5-10.6c0-0.2-0.1-0.4-0.1-0.5c-0.2-1.4-0.8-2.4-2-3.3c-3.4-2.7-3.8-6.7-1.2-10
	c3.2,2.8,3.3,2.9,3.4,6.2c2.2-0.9,4.5-1.8,6.3,1c-0.8-0.1-1.4-0.3-2-0.3c-1.5,0-2.1,0.6-2.6,2c-0.5,1.3-0.3,2.3,0.3,3.4
	c1.1,2.1,2.1,4.4,3.6,6.3c1.9,2.4,4.6,2,6.3-0.6c0.8-1.4,1.3-3.1,1.3-5.1c-1,0-2.1,0.2-2.5-1.1C152.5,17.8,153.1,17.3,154.4,16.9"/>
<path class="st0" d="M196.3,37c-1.2,1.9,0.8,2.7,1.3,4.2c-0.7,0.4-1.5,0.8-2.3,1.2c-0.6,0.3-0.8,1.1-0.2,1.5c0.6,0.5,1,1.1,0.6,1.9
	c-0.4,0.8-1.2,0.9-2,0.8c-2-0.4-3.9-0.8-5.9-1.1c-4.9-0.9-9.9-1.3-14.9-1.4c-8.2-0.2-16.3,0.6-24.3,2.5c-0.5,0.1-1.2,0.1-1.7-0.1
	c-0.9-0.4-1-1.5-0.2-2.3c0.9-0.9,0.8-1.3-0.3-1.9c-0.7-0.3-1.3-0.7-2-1.1c0.5-0.7,0.9-1.3,1.3-1.9c0.8-1,0.5-1.9-0.7-2.4
	c-0.4-0.2-0.9-0.7-1-1.1c-0.1-0.4,0.3-0.9,0.5-1.3c0.2-0.4,0.4-0.8,0.7-1.1c0.2-0.2,0.4-0.4,0.7-0.4c11.1-2.4,22.4-3.5,33.7-2.4
	c5.6,0.5,11.2,1.6,16.8,2.5c0.3,0,0.5,0.5,0.8,0.8c0.1,0.2,0.2,0.4,0.4,0.5c0.7,0.4,1.1,1.1,0.7,1.7c-0.3,0.5-1,0.7-1.5,1
	C196.4,37,196.3,37,196.3,37 M174.9,37c-2.8-2.8-5.9-2.7-7.9,0.1C168.7,39.6,173.4,39.5,174.9,37 M183.4,39.5c1,0,1.9-0.8,1.9-1.8
	c0-1-0.9-1.9-1.9-1.9c-1,0-1.9,0.8-1.9,1.7C181.3,38.6,182.3,39.5,183.4,39.5 M160.6,37.6c0-1-0.8-1.8-1.8-1.8c-1.1,0-2,0.9-2,1.9
	c0,1,0.9,1.7,1.9,1.7C159.8,39.5,160.6,38.6,160.6,37.6"/>
<g>
	<path class="st1" d="M35.5,60.3c-0.4,0-1.1,0.1-2,0.4c-0.9,0.2-1.5,0.5-1.9,0.7c-0.5,0.4-0.9,1.1-1.1,2.2c-0.2,1.1-0.3,2.5-0.3,4.1
		v23.7h-2L8.6,64.9v16.7c0,1.9,0.1,3.3,0.4,4.3c0.2,1,0.6,1.7,1.1,2.1c0.4,0.3,1.1,0.6,2.2,0.9c1.1,0.3,1.8,0.4,2.2,0.5v1.6H1.1
		v-1.6c0.4,0,1.1-0.2,2.1-0.4c1-0.3,1.6-0.5,1.8-0.7c0.5-0.4,0.9-1.1,1.1-2c0.2-0.9,0.3-2.4,0.3-4.5v-16c0-0.7-0.1-1.4-0.4-2.1
		c-0.2-0.7-0.6-1.2-1-1.6c-0.5-0.5-1.3-0.9-2.2-1.3c-0.9-0.4-1.7-0.6-2.3-0.6v-1.6h9.3L28,83.4V67.9c0-1.9-0.1-3.3-0.4-4.4
		c-0.2-1-0.6-1.7-1.1-2c-0.4-0.3-1.1-0.6-2.1-0.8c-1-0.3-1.7-0.4-2.2-0.5v-1.6h13.2V60.3z"/>
	<path class="st1" d="M61.7,90.7l-7.4,0.5L54,90.8V88h-0.1c-0.4,0.4-0.8,0.8-1.2,1.2c-0.5,0.4-1,0.8-1.6,1.2c-0.7,0.4-1.3,0.7-2,0.9
		c-0.6,0.2-1.5,0.3-2.7,0.3c-2,0-3.5-0.7-4.6-2c-1-1.3-1.6-3.2-1.6-5.7V73.2c0-0.5-0.1-1-0.3-1.4s-0.5-0.7-0.9-1
		c-0.3-0.2-0.6-0.3-1-0.4c-0.4-0.1-0.9-0.1-1.3-0.2v-1.5l7.5-0.5l0.3,0.3v15.7c0,1.6,0.4,2.9,1.1,3.7c0.7,0.8,1.6,1.2,2.6,1.2
		c0.8,0,1.6-0.1,2.2-0.4c0.7-0.3,1.2-0.6,1.6-0.9c0.4-0.3,0.8-0.7,1.1-1c0.3-0.4,0.6-0.7,0.7-1V73.1c0-0.5-0.1-0.9-0.3-1.3
		c-0.2-0.4-0.5-0.7-0.9-1c-0.3-0.2-0.7-0.3-1.2-0.3c-0.5,0-1.1-0.1-1.8-0.1v-1.5l8.2-0.5l0.3,0.3v17.9c0,0.5,0.1,1,0.3,1.3
		c0.2,0.4,0.5,0.7,0.9,0.9c0.3,0.2,0.6,0.3,1,0.3c0.4,0.1,0.8,0.1,1.3,0.1V90.7z"/>
	<path class="st1" d="M103,91.1H92v-1.5c0.4,0,0.7-0.1,1.1-0.1c0.4,0,0.7-0.1,0.9-0.2c0.4-0.1,0.7-0.4,0.9-0.7
		c0.2-0.3,0.3-0.8,0.3-1.3V75.6c0-1.6-0.4-2.8-1.1-3.7c-0.7-0.9-1.6-1.3-2.7-1.3c-0.7,0-1.4,0.1-2.1,0.3s-1.3,0.5-1.8,1
		c-0.4,0.3-0.8,0.7-1.1,1.1c-0.3,0.4-0.5,0.7-0.7,1v13c0,0.5,0.1,1,0.3,1.3s0.5,0.6,0.9,0.8c0.4,0.1,0.7,0.2,0.9,0.3
		s0.7,0.1,1.1,0.1v1.5H78.3v-1.5c0.4,0,0.7-0.1,1-0.1c0.3,0,0.6-0.1,0.9-0.2c0.4-0.1,0.7-0.4,0.9-0.7s0.3-0.8,0.3-1.3V75.6
		c0-1.6-0.4-2.8-1.1-3.7c-0.7-0.9-1.6-1.3-2.7-1.3c-0.7,0-1.5,0.1-2.1,0.4c-0.7,0.2-1.3,0.6-1.8,1c-0.4,0.3-0.8,0.7-1.1,1.1
		c-0.3,0.4-0.5,0.7-0.7,0.9V87c0,0.5,0.1,1,0.3,1.3c0.2,0.4,0.5,0.6,1,0.8c0.3,0.2,0.6,0.3,1,0.3c0.3,0.1,0.7,0.1,1.1,0.2v1.5H64.4
		v-1.5c0.4,0,0.7-0.1,1.1-0.1c0.4,0,0.7-0.1,1-0.2c0.4-0.1,0.7-0.4,0.9-0.7c0.2-0.3,0.3-0.8,0.3-1.3v-14c0-0.5-0.1-0.9-0.3-1.3
		s-0.5-0.7-0.9-1c-0.3-0.2-0.6-0.3-1.1-0.4c-0.4-0.1-0.9-0.2-1.3-0.2v-1.5l7.5-0.5l0.3,0.3v3.2h0.2c0.4-0.4,0.8-0.8,1.4-1.3
		s1.1-0.9,1.5-1.3c0.5-0.4,1.2-0.7,2-0.9c0.8-0.2,1.7-0.4,2.6-0.4c1.5,0,2.7,0.4,3.8,1.2c1.1,0.8,1.8,1.7,2.3,2.8
		c0.5-0.5,1-1,1.4-1.4c0.4-0.4,1-0.8,1.7-1.3c0.6-0.4,1.3-0.7,2-1c0.8-0.2,1.7-0.4,2.6-0.4c1.9,0,3.4,0.6,4.5,1.9
		c1.1,1.2,1.7,3.2,1.7,5.8V87c0,0.5,0.1,1,0.3,1.3c0.2,0.3,0.5,0.6,0.9,0.8c0.4,0.1,0.7,0.2,1,0.3c0.3,0.1,0.7,0.1,1.2,0.1V91.1z"/>
	<path class="st1" d="M116.6,91.1h-10.9v-1.5c0.4,0,0.7-0.1,1.1-0.1c0.4,0,0.7-0.1,1-0.2c0.4-0.1,0.7-0.4,0.9-0.7
		c0.2-0.3,0.3-0.8,0.3-1.3V73.3c0-0.5-0.1-0.9-0.3-1.3c-0.2-0.4-0.5-0.7-0.9-1c-0.3-0.2-0.7-0.3-1.3-0.5c-0.5-0.1-1.1-0.2-1.5-0.2
		v-1.5l8-0.5l0.3,0.3V87c0,0.5,0.1,1,0.3,1.3s0.5,0.6,1,0.8c0.3,0.1,0.7,0.2,1,0.3c0.3,0.1,0.7,0.1,1.1,0.2V91.1z M113.7,59.4
		c0,0.9-0.3,1.6-0.9,2.3s-1.3,1-2.1,1c-0.8,0-1.5-0.3-2-0.9c-0.6-0.6-0.9-1.3-0.9-2.1c0-0.8,0.3-1.6,0.9-2.2c0.6-0.6,1.2-0.9,2-0.9
		c0.9,0,1.6,0.3,2.1,0.9C113.4,57.9,113.7,58.6,113.7,59.4z"/>
	<path class="st1" d="M134.2,80c0.6,0.5,1.1,1.2,1.4,1.9c0.3,0.7,0.5,1.6,0.5,2.6c0,2.1-0.8,3.8-2.3,5.1c-1.6,1.3-3.6,2-6.1,2
		c-1.3,0-2.5-0.2-3.6-0.7s-1.9-0.9-2.4-1.3l-0.5,1.5h-1.7l-0.2-7.8h1.6c0.1,0.6,0.4,1.3,0.8,2.1c0.4,0.8,0.9,1.5,1.4,2.2
		c0.6,0.7,1.3,1.2,2.1,1.7c0.8,0.5,1.8,0.7,2.8,0.7c1.5,0,2.6-0.3,3.4-1c0.8-0.7,1.2-1.6,1.2-2.9c0-0.6-0.1-1.2-0.4-1.7
		c-0.3-0.5-0.6-0.9-1.1-1.2c-0.5-0.4-1.1-0.7-1.9-0.9s-1.5-0.6-2.4-0.8c-0.7-0.2-1.5-0.5-2.4-0.9c-0.9-0.4-1.6-0.8-2.3-1.3
		c-0.7-0.5-1.2-1.2-1.6-2s-0.6-1.7-0.6-2.7c0-1.8,0.7-3.4,2.1-4.7c1.4-1.3,3.2-1.9,5.5-1.9c0.9,0,1.8,0.1,2.7,0.3s1.7,0.5,2.3,0.8
		l0.5-1.2h1.6l0.3,7.2h-1.6c-0.3-1.6-1-2.9-2.1-4s-2.3-1.5-3.9-1.5c-1.2,0-2.2,0.3-2.9,0.9s-1.1,1.4-1.1,2.3c0,0.7,0.1,1.3,0.4,1.7
		s0.6,0.8,1.1,1.2c0.5,0.3,1,0.6,1.7,0.9c0.7,0.3,1.5,0.6,2.6,0.9c1,0.3,2,0.7,2.8,1.1S133.6,79.5,134.2,80z"/>
	<path class="st1" d="M178.1,91.1h-11v-1.5c0.4,0,0.7-0.1,1.1-0.1c0.4,0,0.7-0.1,0.9-0.2c0.4-0.1,0.7-0.4,0.9-0.7
		c0.2-0.3,0.3-0.8,0.3-1.3V75.6c0-1.6-0.4-2.8-1.1-3.7c-0.7-0.9-1.6-1.3-2.7-1.3c-0.7,0-1.4,0.1-2.1,0.3s-1.3,0.5-1.8,1
		c-0.4,0.3-0.8,0.7-1.1,1.1c-0.3,0.4-0.5,0.7-0.7,1v13c0,0.5,0.1,1,0.3,1.3s0.5,0.6,0.9,0.8c0.4,0.1,0.7,0.2,0.9,0.3
		s0.7,0.1,1.1,0.1v1.5h-10.7v-1.5c0.4,0,0.7-0.1,1-0.1c0.3,0,0.6-0.1,0.9-0.2c0.4-0.1,0.7-0.4,0.9-0.7s0.3-0.8,0.3-1.3V75.6
		c0-1.6-0.4-2.8-1.1-3.7c-0.7-0.9-1.6-1.3-2.7-1.3c-0.7,0-1.5,0.1-2.1,0.4c-0.7,0.2-1.3,0.6-1.8,1c-0.4,0.3-0.8,0.7-1.1,1.1
		c-0.3,0.4-0.5,0.7-0.7,0.9V87c0,0.5,0.1,1,0.3,1.3c0.2,0.4,0.5,0.6,1,0.8c0.3,0.2,0.6,0.3,1,0.3c0.3,0.1,0.7,0.1,1.1,0.2v1.5h-10.9
		v-1.5c0.4,0,0.7-0.1,1.1-0.1c0.4,0,0.7-0.1,1-0.2c0.4-0.1,0.7-0.4,0.9-0.7c0.2-0.3,0.3-0.8,0.3-1.3v-14c0-0.5-0.1-0.9-0.3-1.3
		s-0.5-0.7-0.9-1c-0.3-0.2-0.6-0.3-1.1-0.4c-0.4-0.1-0.9-0.2-1.3-0.2v-1.5l7.5-0.5l0.3,0.3v3.2h0.2c0.4-0.4,0.8-0.8,1.4-1.3
		s1.1-0.9,1.5-1.3c0.5-0.4,1.2-0.7,2-0.9c0.8-0.2,1.7-0.4,2.6-0.4c1.5,0,2.7,0.4,3.8,1.2c1.1,0.8,1.8,1.7,2.3,2.8
		c0.5-0.5,1-1,1.4-1.4c0.4-0.4,1-0.8,1.7-1.3c0.6-0.4,1.3-0.7,2-1c0.8-0.2,1.7-0.4,2.6-0.4c1.9,0,3.4,0.6,4.5,1.9
		c1.1,1.2,1.7,3.2,1.7,5.8V87c0,0.5,0.1,1,0.3,1.3s0.5,0.6,0.9,0.8c0.3,0.1,0.7,0.2,1,0.3c0.3,0.1,0.7,0.1,1.2,0.1V91.1z"/>
	<path class="st1" d="M202.1,90.7c-0.7,0.3-1.3,0.5-1.9,0.6s-1.2,0.2-1.8,0.2c-1.2,0-2.1-0.3-2.8-0.8c-0.7-0.6-1.2-1.4-1.4-2.4h-0.1
		c-1,1.1-2.1,1.9-3.2,2.5c-1.1,0.6-2.5,0.9-4.1,0.9c-1.7,0-3.1-0.5-4.2-1.6S181,87.7,181,86c0-0.9,0.1-1.6,0.4-2.3
		c0.2-0.7,0.6-1.3,1.1-1.9c0.4-0.5,0.9-0.9,1.5-1.2c0.6-0.4,1.2-0.6,1.8-0.9c0.7-0.3,2.1-0.7,4.2-1.4c2.1-0.7,3.5-1.2,4.2-1.6v-2.3
		c0-0.2,0-0.6-0.1-1.1c-0.1-0.6-0.3-1.1-0.5-1.6c-0.3-0.6-0.7-1.1-1.3-1.5c-0.6-0.4-1.3-0.6-2.4-0.6c-0.7,0-1.4,0.1-2,0.4
		c-0.6,0.2-1,0.5-1.3,0.7c0,0.3,0.1,0.8,0.2,1.3c0.1,0.6,0.2,1.1,0.2,1.6c0,0.5-0.2,1-0.7,1.5c-0.5,0.4-1.1,0.7-2,0.7
		c-0.8,0-1.3-0.3-1.7-0.8c-0.4-0.5-0.5-1.1-0.5-1.8c0-0.7,0.2-1.4,0.7-2s1.1-1.2,1.9-1.7c0.7-0.4,1.5-0.8,2.5-1.1s1.9-0.4,2.9-0.4
		c1.3,0,2.4,0.1,3.3,0.3c1,0.2,1.8,0.6,2.6,1.1c0.8,0.6,1.4,1.3,1.8,2.3s0.6,2.2,0.6,3.7c0,2.2,0,4.1-0.1,5.8c0,1.7-0.1,3.5-0.1,5.5
		c0,0.6,0.1,1.1,0.3,1.4c0.2,0.4,0.5,0.6,0.9,0.9c0.2,0.1,0.6,0.2,1.1,0.2c0.5,0,1,0,1.5,0V90.7z M194.2,78.6
		c-1.3,0.4-2.4,0.8-3.4,1.1c-1,0.4-1.9,0.8-2.7,1.4c-0.8,0.5-1.4,1.1-1.8,1.8c-0.4,0.7-0.7,1.6-0.7,2.5c0,1.3,0.3,2.2,1,2.8
		c0.7,0.6,1.5,0.9,2.5,0.9c1.1,0,2-0.3,2.9-0.8s1.5-1.1,2.1-1.9L194.2,78.6z"/>
	<path class="st1" d="M218.3,90.1c-1,0.4-1.9,0.8-2.8,1c-0.9,0.3-2,0.4-3.2,0.4c-1.9,0-3.2-0.5-4-1.4c-0.8-1-1.2-2.3-1.2-4V70.8H203
		v-2.2h4.2v-7h4.2v7h6.5v2.2h-6.4v12.6c0,0.9,0,1.7,0.1,2.4s0.2,1.2,0.5,1.7c0.2,0.4,0.6,0.8,1.1,1s1.1,0.3,2,0.3
		c0.4,0,0.9,0,1.7-0.1c0.7-0.1,1.3-0.2,1.6-0.3V90.1z"/>
	<path class="st1" d="M231.4,91.1h-10.9v-1.5c0.4,0,0.7-0.1,1.1-0.1c0.4,0,0.7-0.1,1-0.2c0.4-0.1,0.7-0.4,0.9-0.7
		c0.2-0.3,0.3-0.8,0.3-1.3V73.3c0-0.5-0.1-0.9-0.3-1.3s-0.5-0.7-0.9-1c-0.3-0.2-0.7-0.3-1.3-0.5c-0.5-0.1-1.1-0.2-1.5-0.2v-1.5
		l8-0.5l0.3,0.3V87c0,0.5,0.1,1,0.3,1.3s0.5,0.6,1,0.8c0.3,0.1,0.7,0.2,1,0.3c0.3,0.1,0.7,0.1,1.1,0.2V91.1z M228.6,59.4
		c0,0.9-0.3,1.6-0.9,2.3c-0.6,0.6-1.3,1-2.1,1c-0.8,0-1.5-0.3-2-0.9c-0.6-0.6-0.9-1.3-0.9-2.1c0-0.8,0.3-1.6,0.9-2.2
		c0.6-0.6,1.2-0.9,2-0.9c0.9,0,1.6,0.3,2.1,0.9C228.3,57.9,228.6,58.6,228.6,59.4z"/>
	<path class="st1" d="M258.1,91.1h-6.8c-1.2-1.7-2.5-3.6-3.8-5.5c-1.4-2-2.8-3.9-4.2-5.7l-1.9,1.7v5.3c0,0.5,0.1,1,0.3,1.4
		c0.2,0.4,0.5,0.6,1,0.8c0.4,0.2,0.7,0.3,1.1,0.3s0.7,0.1,1.2,0.2v1.5h-11v-1.5c0.3,0,0.7-0.1,1.1-0.1c0.4,0,0.7-0.1,1-0.2
		c0.4-0.1,0.7-0.4,1-0.7s0.3-0.8,0.3-1.3V61c0-0.6-0.1-1.1-0.4-1.6c-0.2-0.5-0.5-0.9-0.9-1.1c-0.3-0.2-0.8-0.4-1.5-0.5
		c-0.7-0.1-1.2-0.1-1.6-0.2v-1.5l8.3-0.5l0.3,0.3v23.8c1.2-1.2,2.5-2.5,3.9-3.8s2.5-2.6,3.5-3.6c0.1-0.1,0.3-0.3,0.4-0.5
		c0.1-0.2,0.2-0.4,0.2-0.5c0-0.4-0.3-0.7-1-0.9c-0.7-0.2-1.3-0.3-1.9-0.4v-1.5h9.9V70c-1.3,0.4-2.4,0.9-3.4,1.4s-1.7,1.1-2.3,1.5
		c-0.4,0.3-0.9,0.8-1.6,1.5c-0.7,0.7-1.6,1.6-2.8,2.7c1.2,1.5,2.7,3.4,4.2,5.5c1.6,2.1,2.7,3.7,3.4,4.7c0.7,0.9,1.3,1.5,1.8,1.8
		c0.5,0.3,1.3,0.4,2.3,0.5V91.1z"/>
	<path class="st1" d="M280.6,90.7c-0.7,0.3-1.3,0.5-1.9,0.6s-1.2,0.2-1.8,0.2c-1.2,0-2.1-0.3-2.8-0.8c-0.7-0.6-1.2-1.4-1.4-2.4h-0.1
		c-1,1.1-2.1,1.9-3.2,2.5c-1.1,0.6-2.5,0.9-4.1,0.9c-1.7,0-3.1-0.5-4.2-1.6s-1.6-2.4-1.6-4.1c0-0.9,0.1-1.6,0.4-2.3
		c0.2-0.7,0.6-1.3,1.1-1.9c0.4-0.5,0.9-0.9,1.5-1.2c0.6-0.4,1.2-0.6,1.8-0.9c0.7-0.3,2.1-0.7,4.2-1.4c2.1-0.7,3.5-1.2,4.2-1.6v-2.3
		c0-0.2,0-0.6-0.1-1.1c-0.1-0.6-0.3-1.1-0.5-1.6c-0.3-0.6-0.7-1.1-1.3-1.5c-0.6-0.4-1.3-0.6-2.4-0.6c-0.7,0-1.4,0.1-2,0.4
		c-0.6,0.2-1,0.5-1.3,0.7c0,0.3,0.1,0.8,0.2,1.3c0.1,0.6,0.2,1.1,0.2,1.6c0,0.5-0.2,1-0.7,1.5c-0.5,0.4-1.1,0.7-2,0.7
		c-0.8,0-1.3-0.3-1.7-0.8c-0.4-0.5-0.5-1.1-0.5-1.8c0-0.7,0.2-1.4,0.7-2s1.1-1.2,1.9-1.7c0.7-0.4,1.5-0.8,2.5-1.1s1.9-0.4,2.9-0.4
		c1.3,0,2.4,0.1,3.3,0.3c1,0.2,1.8,0.6,2.6,1.1c0.8,0.6,1.4,1.3,1.8,2.3s0.6,2.2,0.6,3.7c0,2.2,0,4.1-0.1,5.8c0,1.7-0.1,3.5-0.1,5.5
		c0,0.6,0.1,1.1,0.3,1.4c0.2,0.4,0.5,0.6,0.9,0.9c0.2,0.1,0.6,0.2,1.1,0.2c0.5,0,1,0,1.5,0V90.7z M272.7,78.6
		c-1.3,0.4-2.4,0.8-3.4,1.1c-1,0.4-1.9,0.8-2.7,1.4c-0.8,0.5-1.4,1.1-1.8,1.8c-0.4,0.7-0.7,1.6-0.7,2.5c0,1.3,0.3,2.2,1,2.8
		c0.7,0.6,1.5,0.9,2.5,0.9c1.1,0,2-0.3,2.9-0.8s1.5-1.1,2.1-1.9L272.7,78.6z"/>
	<path class="st1" d="M297.7,91.8c-1.9,0-3.8-0.4-5.6-1.1c-1.8-0.8-3.3-1.9-4.7-3.3c-1.4-1.4-2.4-3.2-3.2-5.2
		c-0.8-2.1-1.2-4.4-1.2-7s0.4-4.9,1.2-7.1s1.9-3.9,3.3-5.5c1.4-1.5,3-2.7,4.9-3.5s3.9-1.2,6-1.2c1.6,0,3,0.2,4.3,0.6
		c1.3,0.4,2.5,1,3.7,1.7l0.9-1.6h1.8l0.2,11.6h-1.9c-0.2-1.1-0.6-2.3-1.1-3.7c-0.5-1.3-1.1-2.4-1.7-3.3c-0.7-1-1.6-1.8-2.6-2.4
		c-1-0.6-2.2-0.9-3.4-0.9c-1.5,0-2.8,0.3-4.1,1c-1.3,0.7-2.4,1.6-3.3,2.9c-0.9,1.2-1.6,2.8-2.1,4.7c-0.5,1.9-0.8,4-0.8,6.4
		c0,2.1,0.3,4,0.8,5.7c0.5,1.7,1.3,3.3,2.2,4.6c1,1.3,2.1,2.3,3.5,3c1.3,0.7,2.8,1.1,4.5,1.1c1.2,0,2.4-0.2,3.4-0.6
		c1-0.4,1.9-0.9,2.7-1.5c0.8-0.7,1.4-1.4,2-2.3c0.6-0.9,1-1.8,1.4-2.8l1.7,0.8c-1.3,3.2-3,5.5-5.2,6.9
		C303.3,91.2,300.7,91.8,297.7,91.8z"/>
	<path class="st1" d="M336.5,76c0.9,0.6,1.7,1.5,2.4,2.5c0.6,1,0.9,2.3,0.9,3.8c0,1.5-0.3,2.8-1,3.9c-0.7,1.1-1.5,2-2.6,2.7
		c-1,0.7-2.2,1.2-3.5,1.6c-1.3,0.4-2.6,0.5-4,0.5h-15.4v-1.6c0.4,0,0.9-0.1,1.6-0.2c0.7-0.1,1.2-0.2,1.5-0.4c0.5-0.2,0.8-0.5,1-0.9
		c0.2-0.4,0.3-0.8,0.3-1.4V63.4c0-0.5-0.1-1-0.3-1.4c-0.2-0.4-0.5-0.7-1-1c-0.5-0.2-1-0.4-1.5-0.5s-1-0.2-1.4-0.2v-1.6h15
		c1.2,0,2.3,0.1,3.3,0.3c1.1,0.2,2.1,0.6,3,1.2c0.9,0.5,1.6,1.3,2.2,2.2s0.9,2,0.9,3.3c0,1.1-0.2,2.2-0.6,3c-0.4,0.9-1,1.7-1.7,2.3
		c-0.7,0.6-1.5,1.1-2.4,1.5s-1.9,0.7-2.9,1v0.2c0.9,0.1,2,0.3,3.1,0.7C334.6,74.8,335.6,75.3,336.5,76z M331,71.1
		c0.6-0.7,1-1.4,1.2-2.2s0.3-1.7,0.3-2.8c0-1.8-0.5-3.2-1.5-4.2c-1-1-2.5-1.5-4.6-1.5c-0.5,0-1.1,0-1.8,0c-0.7,0-1.4,0-1.9,0.1V73
		h2.9c1.2,0,2.3-0.2,3.2-0.5C329.7,72.2,330.4,71.7,331,71.1z M334.1,81.4c0-1.9-0.6-3.5-1.9-4.7c-1.3-1.2-3.1-1.9-5.5-1.9
		c-1,0-1.8,0-2.5,0c-0.7,0-1.2,0-1.5,0.1v11.4c0,1,0.4,1.7,1.2,2.2s1.9,0.7,3.2,0.7c2.3,0,4-0.7,5.2-2C333.5,86,334.1,84,334.1,81.4
		z"/>
</g>
<rect y="35.7" class="st2" width="119.7" height="0.5"/>
<rect x="221.5" y="35.7" class="st2" width="119.7" height="0.5"/>
<rect x="0.6" y="108.6" class="st2" width="340.7" height="3.1"/>
</svg>
