<?xml version="1.0" encoding="utf-8"?>
<!-- Generator: Adobe Illustrator 16.0.0, SVG Export Plug-In . SVG Version: 6.00 Build 0)  -->
<!DOCTYPE svg PUBLIC "-//W3C//DTD SVG 1.1//EN" "http://www.w3.org/Graphics/SVG/1.1/DTD/svg11.dtd">
<svg xmlns="http://www.w3.org/2000/svg" xmlns:xlink="http://www.w3.org/1999/xlink" version="1.1" id="scanquilt-logo" x="0px" y="0px" width="260" height="260" viewBox="0 0 350 130" enable-background="new 0 0 350 130" xml:space="preserve">
<rect x="15" y="9.6" fill="#001A4B" width="320" height="110.7"/>
<path fill-rule="evenodd" clip-rule="evenodd" fill="#FFFFFF" d="M286.6,51.7h-97.3l0.7-2.6h97.3L286.6,51.7 M292.6,53.5  c-0.1,0.2,0,0.4,0.3,0.4h0.1l-0.1,0.4h-1.9l0.1-0.4h0.1c0.3,0,0.4-0.1,0.5-0.4l0.6-2.3c0.1-0.2,0-0.3-0.3-0.4l-0.1,0l0.1-0.4h1.6  c0.7,0,1.1,0.1,1.3,0.2c0.2,0.2,0.3,0.5,0.2,0.8c-0.1,0.5-0.5,0.8-1.2,1l0.5,0.9c0.2,0.3,0.3,0.5,0.5,0.5l-0.1,0.4h-1.1l-0.9-1.7  h-0.1L292.6,53.5l0.5-1.4c0.7,0,1.1-0.2,1.2-0.6c0.1-0.4-0.1-0.6-0.6-0.6c-0.3,0-0.4,0-0.5,0.3l-0.2,0.9h0.1L292.6,53.5 M80.9,59.3  c0.4-1.7,0.6-3.2,0-4.4c-0.8-1.6-2.4-3-7-3.1c-3.1-0.1-6.9,1.8-7.5,4.3c-0.6,2.1,0.4,3.5,3.2,4.1l5.7,1.6c6.5,1.8,8.9,6.1,7.9,10.1  c-1.5,6-6.7,10.5-16.9,10.5c-3.3,0-6.8-0.7-9.5-2.6l-1.4,2.2H53l3.2-12.1l2,0c1.2,6.3,4.9,8.9,10.3,8.9c3.9,0,7.6-2.4,8.4-5.5  c0.6-2.2-0.6-3.5-4-4.5l-6.7-2c-3.2-0.9-4.5-2.2-5.6-3.5c-1.2-1.6-1.6-3.6-1.1-5.8c1.2-5.3,5.8-9.1,14.4-9.1c2.9,0,6.8,0.7,9.2,2.1  l1.1-1.7h2.4l-3.3,10.6L80.9,59.3 M113.6,59.2l-2.2,0c1.1-5.2-2.6-6.9-6.3-6.9c-4.9,0-10.3,5-12.2,13.1c-1.9,8.4,0.5,12.6,5.3,13  c4.1,0.3,8.4-2.2,10.6-6.3h2.5c-0.9,2.2-2.6,4.7-4.4,6.4c-3.3,3-6,3.8-9.5,3.8c-8.6,0-13.1-6.9-10.8-16.6c2.3-10,9.5-17.4,19.5-17.4  c1.7,0,4.4,0.5,7.3,2.3l1.1-1.7h2.2L113.6,59.2 M122.7,69.7l-3.1,4.9c-0.5,0.8-0.9,1.7-1,2.1c-0.3,1.2,0.3,1.7,2.9,2.1l0.5,0  l-0.7,2.7h-12.2l0.7-2.7c3-0.8,3.6-1.3,7.2-6.7L130,48.7h6.6l3.3,24.5c0.7,4.8,0.6,5,3,5.5l0.6,0.1l-0.7,2.7h-14.5l0.7-2.7  c3.5-0.4,3.9-0.6,4.2-1.7c0.1-0.4,0.1-1.3,0-1.9l-0.8-5.6H122.7 M131,54.8l-6.4,11.8h7.6L131,54.8 M176.7,55.2  c0.6-2.2-0.1-3.1-2.6-3.4l-0.6,0l0.7-2.7h11.9l-0.7,2.7l-0.6,0c-2.7,0.2-3.8,1.1-4.4,3.4l-7,26.4H169l-9.3-27.8l-5.7,21.7  c-0.6,2.2,0.1,3.1,2.6,3.4l0.6,0l-0.7,2.7h-11.7l0.7-2.7l0.6,0c2.7-0.2,3.6-1.1,4.2-3.4l5.4-20.3c0.6-2.2-0.1-3.1-2.6-3.4l-0.6,0  l0.7-2.7h12.1l7.4,21.4L176.7,55.2 M290.8,52.3c0,1.6,1.3,2.9,2.8,2.9c1.5,0,2.8-1.3,2.8-2.9c0-1.6-1.3-2.9-2.8-2.9  C292,49.4,290.8,50.7,290.8,52.3 M297,52.3c0,1.9-1.5,3.4-3.4,3.4c-1.9,0-3.4-1.6-3.4-3.4c0-1.9,1.5-3.4,3.5-3.4  C295.4,48.9,297,50.4,297,52.3 M250.1,76.8c-0.5,1.8,0,2.4,2.1,2.7l0.3,0l-0.6,2.1h-11.1l0.6-2.1l0.4,0c2.2-0.3,3-0.8,3.5-2.7  l2.3-8.6c0.2-0.8,0.2-1.2,0-1.5c-0.3-0.3-1.2-0.7-2-0.7h-0.6l0.6-2.1c3.1-0.4,5.2-0.8,6.6-1.2h1.7L250.1,76.8 M256.5,56.9  c-0.4,1.7-2.2,3.1-3.9,3.1s-2.6-1.3-2.2-3c0.5-1.7,2-3,3.8-3.1C255.9,53.7,257,55.1,256.5,56.9 M274.8,75.2  c-0.5,1.8-0.5,2.2-0.2,2.8c0.3,0.6,0.8,0.9,1.7,0.9c1,0,2.1-0.4,3.3-1.1l-0.9,3.2c-1.7,0.8-3.3,1.2-5.2,1.2c-3.3,0-4.9-1.8-4.2-4.5  l3.3-12.5h-3.2l0.7-2.5c2.7,0.1,5.7-2.5,7.6-6.4h2l-1.7,6.4h5.5l-0.7,2.5h-5.5L274.8,75.2 M260.6,56.5c4.6-0.7,5-0.8,6.6-1.5h1.7  l-5.8,21.8c-0.3,1-0.2,1.7,0.2,2c0.4,0.3,1.3,0.7,1.9,0.7h0.3l-0.6,2.1h-11.1l0.6-2.1l0.4,0c2.2-0.2,3-0.9,3.5-2.7l4.3-16.1  c0.2-0.8,0.2-1.2,0.1-1.5c-0.3-0.3-1.3-0.6-2-0.6h-0.6L260.6,56.5 M234.8,67.6c0.4-1.6,0.1-2-2.1-2.1l-0.5,0l0.6-2.1  c2.6-0.2,3.9-0.5,6.8-1.1h1.4l-3.9,14.6c-0.5,1.8,0.1,2.5,2.1,2.7h0.3l-0.6,2.1h-7.9l0.6-2.1c-2.5,1.6-5.7,2.6-8.2,2.6  c-3.3,0-4.7-2-3.8-5.3l2.5-9.3c0.2-0.8,0.2-1.2,0-1.5c-0.3-0.3-1.1-0.6-2-0.6h-0.6l0.6-2.1c2.9-0.2,4.2-0.4,6.7-1.1h1.5l-3.5,13  c-0.5,1.8-0.7,2.8-0.4,3.2c0.2,0.5,1.2,0.3,2,0.3c1.8,0,3.7-0.7,6.1-2.4L234.8,67.6 M212.2,84.8c-0.5,1.8-0.1,2.4,2.1,2.7l0.3,0  l-0.6,2.1H203l0.6-2.1l0.3,0c2.3-0.3,3.1-0.9,3.6-2.7l1.2-4.4c-2.1,1.2-4,1.7-6.1,1.7c-5.1,0-7.6-4.1-6-10c1.6-5.8,6.2-9.9,11.4-9.9  c2.1,0,3.6,0.5,5.1,1.8l1.2-1.8h4L212.2,84.8 M212.3,66.7c-1.1-1.2-2.2-1.7-3.7-1.7c-3.1,0-5.6,2.6-6.8,7.1c-1.2,4.6,0,6.6,3.2,6.6  c1.3,0,3.3-0.7,4.5-1.6L212.3,66.7"/>
</svg>
