<svg xmlns="http://www.w3.org/2000/svg" width="62.719" height="79.75" viewBox="0 0 62.719 79.75">
  <defs>
    <style>
      .cls-1 {
        fill-rule: evenodd;
      }
    </style>
  </defs>
  <path id="Path_81" data-name="Path 81" class="cls-1" d="M311.219,1154.57H248.513l5.308-64.36h52.09Zm-60.474-2.05h58.242l-4.969-60.26h-48.3Z" transform="translate(-248.5 -1074.81)"/>
  <path class="cls-1" d="M260.968,1144.24H297.6v2H260.968v-2Z" transform="translate(-248.5 -1074.81)"/>
  <g>
    <path id="Path_82" data-name="Path 82" class="cls-1" d="M294.841,1100.52h-2.055c0-9.51-3.429-23.66-12.875-23.66-9.491,0-12.873,12.22-12.873,23.66h-2.056c0-12.43,3.922-25.72,14.929-25.72C290.169,1074.8,294.841,1088.13,294.841,1100.52Z" transform="translate(-248.5 -1074.81)"/>
    <path id="Path_83" data-name="Path 83" class="cls-1" d="M265.953,1107.76a4.435,4.435,0,1,1,4.434-4.44A4.436,4.436,0,0,1,265.953,1107.76Zm0-2.06a2.38,2.38,0,1,1,2.378-2.38A2.374,2.374,0,0,1,265.953,1105.7Z" transform="translate(-248.5 -1074.81)"/>
    <path id="Path_84" data-name="Path 84" class="cls-1" d="M293.778,1107.76a4.43,4.43,0,1,1,4.434-4.43A4.428,4.428,0,0,1,293.778,1107.76Zm0-2.05a2.38,2.38,0,1,1,2.378-2.38A2.381,2.381,0,0,1,293.779,1105.71Z" transform="translate(-248.5 -1074.81)"/>
  </g>
</svg>
