<svg xmlns="http://www.w3.org/2000/svg" width="75.5" height="75.54" viewBox="0 0 75.5 75.54">
  <defs>
    <style>
      .cls-1 {
        fill: #fff;
        fill-rule: evenodd;
      }
    </style>
  </defs>
  <circle cx="37.75" cy="37.77" r="37.75"/>
  <path id="Path_38" data-name="Path 38" class="cls-1" d="M1065.9,7527.14l-0.8,6.78a1.3,1.3,0,0,1-1.29,1.14h-7.26l-0.04,20.77h-9.18l0.04-20.77h-5.47a1.285,1.285,0,0,1-1.29-1.28l-0.03-6.79a1.293,1.293,0,0,1,1.29-1.29h5.46v-6.56c0-7.61,4.65-11.75,11.43-11.75h5.57a1.293,1.293,0,0,1,1.29,1.29v5.72a1.287,1.287,0,0,1-1.29,1.29h-3.41c-3.7,0-4.41,1.76-4.41,4.33v5.68h8.11A1.288,1.288,0,0,1,1065.9,7527.14Z" transform="translate(-1015.5 -7493.84)"/>
</svg>
