<svg 
 xmlns="http://www.w3.org/2000/svg"
 xmlns:xlink="http://www.w3.org/1999/xlink"
 width="284px" height="71px">
<path fill-rule="evenodd"  fill="rgb(255, 255, 255)"
 d="M93.698,38.616 L85.789,26.979 L77.790,26.979 L77.790,57.297 L87.470,57.297 L87.470,46.389 L93.698,55.479 L99.879,46.389 L99.879,57.297 L109.561,57.297 L109.561,26.979 L101.560,26.979 L93.698,38.616 Z"/>
<path fill-rule="evenodd"  fill="rgb(255, 255, 255)"
 d="M124.784,45.842 L132.828,45.842 L132.828,38.298 L124.784,38.298 L124.784,34.932 L132.965,34.932 L132.965,26.978 L115.102,26.978 L115.102,57.296 L133.284,57.296 L133.284,49.342 L124.784,49.342 L124.784,45.842 Z"/>
<path fill-rule="evenodd"  fill="rgb(255, 255, 255)"
 d="M160.433,45.298 C159.826,46.086 159.144,46.752 158.388,47.297 L164.069,57.296 L152.706,57.296 L148.161,49.615 L148.161,57.296 L138.479,57.296 L138.479,26.979 L148.933,26.979 C150.873,26.979 152.666,27.237 154.318,27.752 C155.970,28.266 157.402,29.024 158.615,30.026 C159.826,31.025 160.773,32.261 161.455,33.730 C162.138,35.199 162.478,36.889 162.478,38.798 C162.478,40.313 162.266,41.600 161.841,42.660 C161.417,43.723 160.948,44.600 160.433,45.298 ZM151.592,35.935 C150.789,35.418 149.811,35.162 148.660,35.162 L148.161,35.162 L148.161,41.888 L148.660,41.888 C149.811,41.888 150.789,41.630 151.592,41.115 C152.395,40.601 152.796,39.738 152.796,38.525 C152.796,37.312 152.395,36.450 151.592,35.935 Z"/>
<path fill-rule="evenodd"  fill="rgb(255, 255, 255)"
 d="M186.713,47.343 C186.198,47.645 185.561,47.919 184.804,48.161 C184.046,48.405 183.184,48.525 182.214,48.525 C181.244,48.525 180.350,48.358 179.532,48.024 C178.714,47.692 178.002,47.238 177.396,46.662 C176.789,46.084 176.312,45.410 175.965,44.638 C175.614,43.866 175.442,43.040 175.442,42.162 C175.442,41.281 175.608,40.455 175.942,39.684 C176.274,38.910 176.737,38.237 177.327,37.661 C177.918,37.087 178.607,36.631 179.396,36.297 C180.184,35.965 181.048,35.797 181.986,35.797 C182.896,35.797 183.705,35.912 184.418,36.138 C185.130,36.365 185.744,36.602 186.259,36.842 C186.835,37.176 187.365,37.525 187.850,37.888 L192.622,29.480 C191.804,28.904 190.833,28.374 189.714,27.889 C188.744,27.464 187.585,27.086 186.236,26.752 C184.888,26.420 183.351,26.253 181.624,26.253 C179.442,26.253 177.380,26.624 175.442,27.366 C173.502,28.109 171.805,29.177 170.351,30.571 C168.896,31.965 167.744,33.638 166.897,35.593 C166.048,37.548 165.623,39.738 165.623,42.162 C165.623,44.525 166.033,46.685 166.851,48.638 C167.668,50.593 168.805,52.266 170.260,53.660 C171.715,55.056 173.442,56.138 175.442,56.910 C177.441,57.683 179.623,58.070 181.986,58.070 C183.743,58.070 185.305,57.887 186.669,57.524 C188.031,57.162 189.198,56.768 190.169,56.344 C191.289,55.827 192.260,55.237 193.078,54.570 L188.304,46.160 C187.850,46.616 187.320,47.011 186.713,47.343 Z"/>
<path fill-rule="evenodd"  fill="rgb(255, 255, 255)"
 d="M211.113,45.842 C211.113,46.905 210.892,47.714 210.455,48.276 C210.015,48.835 209.280,49.115 208.250,49.115 C207.220,49.115 206.484,48.835 206.045,48.276 C205.606,47.714 205.387,46.905 205.387,45.842 L205.387,26.979 L195.705,26.979 L195.705,46.252 C195.705,48.251 195.999,49.994 196.590,51.480 C197.182,52.964 198.022,54.191 199.114,55.161 C200.205,56.131 201.523,56.857 203.068,57.343 C204.613,57.826 206.341,58.070 208.250,58.070 C210.159,58.070 211.886,57.826 213.431,57.343 C214.977,56.857 216.303,56.131 217.409,55.161 C218.514,54.191 219.363,52.964 219.954,51.480 C220.545,49.994 220.841,48.251 220.841,46.252 L220.841,26.979 L211.113,26.979 L211.113,45.842 Z"/>
<path fill-rule="evenodd"  fill="rgb(255, 255, 255)"
 d="M248.207,45.298 C247.600,46.086 246.919,46.752 246.162,47.297 L251.844,57.296 L240.480,57.296 L235.935,49.615 L235.935,57.296 L226.254,57.296 L226.254,26.979 L236.707,26.979 C238.647,26.979 240.441,27.237 242.094,27.752 C243.745,28.266 245.176,29.024 246.389,30.026 C247.600,31.025 248.548,32.261 249.229,33.730 C249.912,35.199 250.253,36.889 250.253,38.798 C250.253,40.313 250.040,41.600 249.616,42.660 C249.191,43.723 248.722,44.600 248.207,45.298 ZM239.366,35.935 C238.563,35.418 237.586,35.162 236.434,35.162 L235.935,35.162 L235.935,41.888 L236.434,41.888 C237.586,41.888 238.563,41.630 239.366,41.115 C240.169,40.601 240.571,39.738 240.571,38.525 C240.571,37.312 240.169,36.450 239.366,35.935 Z"/>
<path fill-rule="evenodd"  fill="rgb(255, 255, 255)"
 d="M268.043,26.979 L264.589,33.389 L261.089,26.979 L250.316,26.979 L259.725,44.251 L259.725,57.296 L269.407,57.296 L269.407,44.251 L278.816,26.979 L268.043,26.979 Z"/>
<path fill-rule="evenodd"  fill="rgb(255, 255, 255)"
 d="M59.559,61.437 L60.469,68.828 L53.897,69.017 L53.749,70.227 L31.179,69.743 L8.607,70.227 L8.460,69.017 L1.887,68.828 L2.798,61.437 L0.149,14.640 L17.685,15.208 L17.685,13.784 C17.685,4.686 23.266,0.028 31.003,0.028 C38.386,0.028 44.672,4.512 44.672,13.784 L44.672,15.208 L62.208,14.640 L59.559,61.437 ZM38.915,13.784 C38.915,8.246 35.750,5.302 30.959,5.302 C26.167,5.302 23.442,8.510 23.442,13.784 L23.442,15.397 L31.179,15.647 L38.915,15.397 L38.915,13.784 ZM47.065,27.024 L39.064,27.024 L31.201,38.660 L23.293,27.024 L15.292,27.024 L15.292,57.343 L24.974,57.343 L24.974,46.433 L31.201,55.525 L37.383,46.433 L37.383,57.343 L47.065,57.343 L47.065,27.024 Z"/>
</svg>