<svg xmlns="http://www.w3.org/2000/svg" width="74.469" height="74.5" viewBox="0 0 74.469 74.5">
  <defs>
    <style>
      .cls-1 {
        fill-rule: evenodd;
      }
    </style>
  </defs>
  <path id="Path_75" data-name="Path 75" class="cls-1" d="M731.244,1096.45a19,19,0,0,1,19-19h36.477a19,19,0,0,1,19,19v36.47a19,19,0,0,1-19,19H750.244a19,19,0,0,1-19-19v-36.47Zm2,0a17,17,0,0,1,17-17h36.477a17,17,0,0,1,17,17v36.47a17,17,0,0,1-17,17H750.244a17,17,0,0,1-17-17v-36.47Z" transform="translate(-731.25 -1077.44)"/>
  <path id="Path_76" data-name="Path 76" class="cls-1" d="M758.161,1095.89h13.322c8.034,0,13.321,4.27,13.321,11.29v0.1c0,7.68-6.406,11.65-13.982,11.65h-8.644v14.55h-4.017v-37.59Zm12.814,19.37c5.9,0,9.763-3.15,9.763-7.83v-0.1c0-5.08-3.815-7.73-9.56-7.73h-9v15.66h8.8Z" transform="translate(-731.25 -1077.44)"/>
</svg>
