<svg xmlns="http://www.w3.org/2000/svg" width="104.472" height="104.5" viewBox="0 0 104.472 104.5">
  <defs>
    <style>
      .cls-1 {
        fill: none;
      }

      .cls-1, .cls-2 {
        fill-rule: evenodd;
      }

      .cls-2 {
        fill: #000;
      }
    </style>
  </defs>
  <path class="cls-1" d="M980.676,1062.44H1085.16v104.49H980.676V1062.44Z" transform="translate(-980.688 -1062.44)"/>
  <g>
    <path id="Path_77" data-name="Path 77" class="cls-2" d="M1032.92,1118.21a28.109,28.109,0,0,0-20.84,9.27,1.859,1.859,0,0,0,2.76,2.49,24.349,24.349,0,0,1,36.16,0,1.859,1.859,0,0,0,2.76-2.49A28.109,28.109,0,0,0,1032.92,1118.21Z" transform="translate(-980.688 -1062.44)"/>
    <path id="Path_78" data-name="Path 78" class="cls-2" d="M1051.47,1105.38a44.859,44.859,0,0,0-51.889,10.83,1.862,1.862,0,0,0,2.759,2.5,41.16,41.16,0,0,1,61.16,0,1.862,1.862,0,0,0,2.76-2.5A44.878,44.878,0,0,0,1051.47,1105.38Z" transform="translate(-980.688 -1062.44)"/>
    <path id="Path_79" data-name="Path 79" class="cls-2" d="M1059.09,1088.59a63.286,63.286,0,0,0-73.2,15.28,1.858,1.858,0,0,0,1.381,3.1,1.876,1.876,0,0,0,1.381-.61,59.6,59.6,0,0,1,88.543,0,1.859,1.859,0,0,0,2.76-2.49A63.122,63.122,0,0,0,1059.09,1088.59Z" transform="translate(-980.688 -1062.44)"/>
    <path id="Path_80" data-name="Path 80" class="cls-2" d="M1032.92,1150.93a9.42,9.42,0,1,1,9.42-9.42A9.41,9.41,0,0,1,1032.92,1150.93Zm0-3.71a5.705,5.705,0,1,1,5.7-5.71A5.7,5.7,0,0,1,1032.92,1147.22Z" transform="translate(-980.688 -1062.44)"/>
  </g>
</svg>
