<svg xmlns="http://www.w3.org/2000/svg" width="62.72" height="79.75" viewBox="0 0 62.72 79.75"><defs><style>.cls-1{fill-rule:evenodd}</style></defs><path id="Path_81" data-name="Path 81" class="cls-1" d="M311.219 1154.57h-62.706l5.308-64.36h52.09zm-60.474-2.05h58.242l-4.969-60.26h-48.3z" transform="translate(-248.5 -1074.81)"/><path class="cls-1" d="M12.468 69.43H49.1v2H12.468v-2z"/><path id="Path_82" data-name="Path 82" class="cls-1" d="M294.841 1100.52h-2.055c0-9.51-3.429-23.66-12.875-23.66-9.491 0-12.873 12.22-12.873 23.66h-2.056c0-12.43 3.922-25.72 14.929-25.72 10.258 0 14.93 13.33 14.93 25.72z" transform="translate(-248.5 -1074.81)"/><path id="Path_83" data-name="Path 83" class="cls-1" d="M265.953 1107.76a4.435 4.435 0 114.434-4.44 4.436 4.436 0 01-4.434 4.44zm0-2.06a2.38 2.38 0 112.378-2.38 2.374 2.374 0 01-2.378 2.38z" transform="translate(-248.5 -1074.81)"/><path id="Path_84" data-name="Path 84" class="cls-1" d="M293.778 1107.76a4.43 4.43 0 114.434-4.43 4.428 4.428 0 01-4.434 4.43zm0-2.05a2.38 2.38 0 112.378-2.38 2.381 2.381 0 01-2.377 2.38z" transform="translate(-248.5 -1074.81)"/></svg>