<svg xmlns="http://www.w3.org/2000/svg" width="89.38" height="95.41" viewBox="0 0 89.38 95.41"><defs><style>.cls-1{fill-rule:evenodd}</style></defs><path id="Path_85" data-name="Path 85" class="cls-1" d="M517.053 1162.39c-21.965 0-44.684-5.93-44.684-15.85 0-7.16 12.319-13.11 31.381-15.16l.215 1.99c-17.426 1.87-29.6 7.29-29.6 13.17 0 6.69 17.152 13.85 42.684 13.85s42.683-7.16 42.683-13.85c0-6.08-13.235-11.7-31.469-13.36l.182-1.99c19.91 1.81 33.287 7.98 33.287 15.35.004 9.92-22.715 15.85-44.679 15.85z" transform="translate(-472.375 -1066.97)"/><path id="Path_86" data-name="Path 86" class="cls-1" d="M516.369 1150.25l-.765-.91c-1.15-1.37-28.147-33.72-28.147-50.78 0-18.3 12.16-31.58 28.912-31.58s28.912 13.28 28.912 31.58c0 17.06-27 49.41-28.146 50.78zm0-81.27c-15.593 0-26.912 12.44-26.912 29.58 0 14.78 22.445 43.08 26.912 48.56 4.468-5.48 26.912-33.78 26.912-48.56 0-17.14-11.318-29.58-26.912-29.58z" transform="translate(-472.375 -1066.97)"/><path id="Path_87" data-name="Path 87" class="cls-1" d="M526.207 1119.13h-5.458v-41.3l1.468.78c.219.11 5.354 2.88 6.567 7.83 1.384 5.64 1.282 15.95 1.277 16.38l-.012.99h-3.842v15.32zm-3.458-2h1.458v-15.32h3.856c-.011-2.73-.139-10.48-1.222-14.9a10.646 10.646 0 00-4.092-5.56v35.78z" transform="translate(-472.375 -1066.97)"/><path id="Path_88" data-name="Path 88" class="cls-1" d="M511.1 1119.13h-4.533v-21.29a3.985 3.985 0 01-3.53-3.64c-.2-2.83-.01-15.32 0-15.85l2 .03c0 .13-.2 12.93 0 15.68.134 1.87 2.413 1.9 2.527 1.87l1.008-.01v21.21h2.528v2z" transform="translate(-472.375 -1066.97)"/><path id="Path_89" data-name="Path 89" class="cls-1" d="M511.99 1119.13h-3.973v-2h1.973v-21.21l1.007.01c.241 0 2.4-.06 2.529-1.87.2-2.75 0-15.55 0-15.68l2-.03c.008.53.2 13.02 0 15.85a3.984 3.984 0 01-3.53 3.64v21.29z" transform="translate(-472.375 -1066.97)"/><path d="M35.88 11.56h2v14.72h-2z"/></svg>