<svg xmlns="http://www.w3.org/2000/svg" width="75.5" height="75.54" viewBox="0 0 75.5 75.54"><circle cx="37.75" cy="37.77" r="37.75"/><path data-name="Path 38" d="M50.4 33.3l-.8 6.78a1.3 1.3 0 01-1.29 1.14h-7.26l-.04 20.77h-9.18l.04-20.77H26.4a1.285 1.285 0 01-1.29-1.28l-.03-6.79a1.293 1.293 0 011.29-1.29h5.46V25.3c0-7.61 4.65-11.75 11.43-11.75h5.57a1.293 1.293 0 011.29 1.29v5.72a1.287 1.287 0 01-1.29 1.29h-3.41c-3.7 0-4.41 1.76-4.41 4.33v5.68h8.11a1.288 1.288 0 011.28 1.44z" fill="#fff" fill-rule="evenodd"/></svg>