<svg xmlns="http://www.w3.org/2000/svg" width="300" height="334" viewBox="0 0 300 334"><g fill="none" fill-rule="evenodd"><path fill="#000" d="M41.278 16.227h1.95V12.67h2.203c2.442 0 4.44-1.298 4.44-3.78v-.032c0-2.231-1.618-3.702-4.218-3.702h-4.375v11.072zm1.95-5.315V6.927h2.267c1.458 0 2.394.68 2.394 1.978v.031c0 1.155-.92 1.976-2.394 1.976h-2.267zm12.314 5.504c2.584 0 4.486-1.976 4.486-4.349v-.03c0-2.39-1.886-4.335-4.454-4.335-2.568 0-4.47 1.976-4.47 4.365v.032c0 2.372 1.886 4.317 4.438 4.317zm.032-1.676c-1.49 0-2.553-1.217-2.553-2.673v-.03c0-1.456.983-2.66 2.521-2.66 1.506 0 2.568 1.22 2.568 2.69v.032c0 1.439-.983 2.641-2.536 2.641zm9.207 1.629c.729 0 1.252-.158 1.728-.428v-1.565c-.38.19-.761.286-1.19.286-.65 0-1.03-.301-1.03-1.045V9.52h2.251V7.876h-2.25V5.583H62.37v2.293H61.31v1.645h1.062v4.396c0 1.836.999 2.452 2.41 2.452zm3.706-.142h1.918v-3.179c0-2.214 1.173-3.305 2.854-3.305h.11V7.719c-1.474-.065-2.44.79-2.964 2.038v-1.88h-1.918v8.35zm8.557.175c1.284 0 2.156-.54 2.727-1.22v1.045h1.87v-4.95c0-1.093-.285-1.978-.903-2.58-.587-.599-1.522-.933-2.774-.933-1.332 0-2.236.27-3.155.68l.507 1.504c.761-.317 1.459-.523 2.394-.523 1.347 0 2.077.633 2.077 1.82v.205a7.019 7.019 0 00-2.251-.347c-2.046 0-3.457.886-3.457 2.688v.03c0 1.678 1.396 2.58 2.965 2.58zm.539-1.394c-.92 0-1.633-.458-1.633-1.265v-.031c0-.87.73-1.392 1.966-1.392a5.35 5.35 0 011.902.332v.57c0 1.06-.967 1.786-2.235 1.786zM86.267 16.29h1.728l3.424-8.414h-2.013l-2.267 6.137-2.251-6.137h-2.061zM93.08 6.595h2.061v-1.82h-2.06v1.82zm.08 9.632h1.918v-8.35h-1.919v8.35zm4.419 0h1.918v-4.713c0-1.297.777-2.072 1.887-2.072 1.14 0 1.79.742 1.79 2.04v4.745h1.92v-5.33c0-1.93-1.095-3.195-2.981-3.195-1.3 0-2.077.68-2.616 1.456V7.876H97.58v8.351zm13.218-2.152l-2.362-6.199h-2.061l3.487 8.366c-.317.713-.65.95-1.189.95-.396 0-.776-.127-1.125-.317l-.65 1.424a3.97 3.97 0 001.981.506c1.348 0 2.093-.632 2.759-2.341l3.33-8.588h-1.998l-2.172 6.199zm4.007 4.46c1.601-.14 2.441-.885 2.441-2.64v-1.851h-2.108v2.183h.824c.064.807-.396 1.297-1.363 1.487l.206.822zm12.933-2.133c1.363 0 2.235-.697 2.853-1.566v1.391h1.918V4.681h-1.918v4.491c-.602-.79-1.474-1.47-2.853-1.47-1.998 0-3.884 1.566-3.884 4.334v.031c0 2.769 1.918 4.335 3.884 4.335zm.46-1.662c-1.3 0-2.41-1.06-2.41-2.673v-.03c0-1.662 1.094-2.674 2.41-2.674 1.283 0 2.425 1.06 2.425 2.673v.031c0 1.597-1.142 2.673-2.426 2.673zm10.554 1.676c1.538 0 2.631-.616 3.424-1.566l-1.126-.995c-.665.647-1.331.995-2.266.995-1.237 0-2.204-.759-2.41-2.119h6.15c.017-.189.033-.363.033-.537 0-2.404-1.348-4.492-4.011-4.492-2.394 0-4.09 1.962-4.09 4.349v.033c0 2.578 1.87 4.332 4.296 4.332zm-2.394-4.95c.174-1.296.999-2.198 2.172-2.198 1.268 0 1.997.964 2.124 2.198h-4.296zM144.597 16.227h1.918V4.682h-1.918zM149.048 6.595h2.061v-1.82h-2.06v1.82zm.08 9.632h1.918v-8.35h-1.919v8.35zM153.547 16.227h1.918v-2.389l1.189-1.233 2.473 3.622h2.251l-3.44-4.95 3.329-3.401h-2.33l-3.472 3.7V4.681h-1.918zM165.021 16.402c1.284 0 2.156-.54 2.727-1.22v1.045h1.87v-4.95c0-1.093-.285-1.978-.903-2.58-.587-.599-1.522-.933-2.775-.933-1.331 0-2.235.27-3.154.68l.507 1.504c.761-.317 1.458-.523 2.394-.523 1.347 0 2.077.633 2.077 1.82v.205a7.018 7.018 0 00-2.252-.347c-2.045 0-3.455.886-3.455 2.688v.03c0 1.678 1.395 2.58 2.964 2.58zm.539-1.394c-.92 0-1.633-.458-1.633-1.265v-.031c0-.87.73-1.392 1.966-1.392.76 0 1.41.143 1.902.332v.57c0 1.06-.967 1.786-2.235 1.786zm9.08 1.36c.73 0 1.253-.157 1.728-.427v-1.565c-.38.19-.76.286-1.189.286-.65 0-1.03-.301-1.03-1.045V9.52h2.251V7.876h-2.251V5.583h-1.918v2.293h-1.063v1.645h1.063v4.396c0 1.836.998 2.452 2.41 2.452zm7.305.048c1.538 0 2.632-.616 3.424-1.566l-1.125-.995c-.666.647-1.332.995-2.267.995-1.237 0-2.204-.759-2.41-2.119h6.15c.017-.189.032-.363.032-.537 0-2.404-1.347-4.492-4.01-4.492-2.394 0-4.09 1.962-4.09 4.349v.033c0 2.578 1.87 4.332 4.296 4.332zm-2.394-4.95c.175-1.296.999-2.198 2.172-2.198 1.268 0 1.998.964 2.124 2.198h-4.296zm10.998 4.919c1.744 0 3.107-.87 3.107-2.625v-.032c0-1.503-1.378-2.057-2.6-2.436-.981-.315-1.885-.568-1.885-1.186v-.032c0-.474.428-.823 1.172-.823.698 0 1.555.301 2.363.792l.761-1.36c-.887-.585-2.03-.95-3.076-.95-1.665 0-2.98.965-2.98 2.547v.031c0 1.599 1.38 2.105 2.616 2.451.983.3 1.87.523 1.87 1.172v.03c0 .555-.475.903-1.3.903-.857 0-1.823-.348-2.742-1.029l-.856 1.297c1.045.823 2.36 1.25 3.55 1.25zm8.462-2.31l-2.361-6.199h-2.062l3.488 8.366c-.316.713-.65.95-1.189.95-.397 0-.777-.127-1.125-.317l-.65 1.424a3.968 3.968 0 001.98.506c1.35 0 2.094-.632 2.76-2.341l3.329-8.588h-1.998l-2.172 6.199zM44.94 44.645h1.728l4.597-11.151h-2.108l-3.329 8.509-3.345-8.509h-2.156zM55.812 44.755c2.584 0 4.486-1.976 4.486-4.349v-.033c0-2.387-1.886-4.332-4.455-4.332-2.568 0-4.47 1.976-4.47 4.365v.031c0 2.373 1.886 4.318 4.439 4.318zm.031-1.678c-1.49 0-2.552-1.217-2.552-2.67v-.034c0-1.454.983-2.656 2.52-2.656 1.507 0 2.569 1.217 2.569 2.69v.03c0 1.44-.983 2.64-2.537 2.64zM62.356 44.564h1.918V33.018h-1.918zM66.775 44.564h1.918v-4.712c0-1.298.777-2.071 1.887-2.071 1.141 0 1.791.742 1.791 2.038v4.745h1.918v-5.33c0-1.928-1.093-3.193-2.98-3.193-1.3 0-2.077.68-2.616 1.454v-1.28h-1.918v8.35zm13.218-2.15l-2.362-6.199H75.57l3.488 8.366c-.317.711-.65.95-1.19.95-.396 0-.776-.127-1.125-.318l-.65 1.423a3.952 3.952 0 001.982.508c1.347 0 2.092-.635 2.758-2.341l3.33-8.588h-1.998l-2.172 6.199zm-.872-7.259h1.443l1.95-1.82-1.744-.774-1.649 2.594zm17.974-2.326h-1.49l-1.237 1.06-1.22-1.06h-1.522l1.839 2.326h1.775l1.855-2.326zm-2.663 11.926c1.632 0 2.6-.65 3.424-1.566l-1.157-1.138c-.603.616-1.269 1.026-2.172 1.026-1.475 0-2.505-1.186-2.505-2.67v-.034c0-1.454 1.03-2.656 2.426-2.656.95 0 1.569.427 2.155 1.043l1.205-1.28c-.792-.854-1.775-1.44-3.345-1.44-2.52 0-4.36 1.994-4.36 4.366v.031c0 2.373 1.84 4.318 4.329 4.318zm7.59-.017c1.284 0 2.156-.537 2.727-1.217v1.043h1.87v-4.95c0-1.09-.285-1.976-.904-2.578-.586-.601-1.521-.933-2.774-.933-1.331 0-2.235.27-3.155.68l.508 1.504c.76-.317 1.458-.523 2.394-.523 1.347 0 2.076.633 2.076 1.819v.205a7.014 7.014 0 00-2.25-.348c-2.046 0-3.457.885-3.457 2.69v.03c0 1.678 1.395 2.578 2.965 2.578zm.539-1.391c-.92 0-1.633-.458-1.633-1.265v-.031c0-.871.73-1.392 1.966-1.392a5.31 5.31 0 011.902.332v.568c0 1.06-.967 1.788-2.235 1.788zm9.223 1.377c1.744 0 3.107-.871 3.107-2.626v-.033c0-1.501-1.38-2.055-2.6-2.434-.983-.318-1.887-.57-1.887-1.187v-.03c0-.476.429-.824 1.174-.824.697 0 1.553.3 2.362.79l.76-1.36c-.887-.585-2.028-.948-3.075-.948-1.664 0-2.98.964-2.98 2.547v.03c0 1.598 1.38 2.104 2.616 2.452.982.3 1.87.522 1.87 1.172v.03c0 .554-.475.903-1.3.903-.856 0-1.823-.349-2.742-1.029l-.856 1.296c1.046.824 2.362 1.25 3.55 1.25zm4.61 2.15c1.6-.143 2.44-.885 2.44-2.642v-1.85h-2.108v2.182h.825c.063.807-.397 1.298-1.364 1.487l.207.823zM125.49 44.564h7.276v-1.565h-4.835l4.835-5.471v-1.313h-7.102v1.566h4.661l-4.835 5.471zM137.154 44.738c1.284 0 2.156-.537 2.727-1.217v1.043h1.87v-4.95c0-1.09-.285-1.976-.903-2.578-.587-.601-1.522-.933-2.774-.933-1.332 0-2.236.27-3.155.68l.507 1.504c.761-.317 1.459-.523 2.394-.523 1.347 0 2.077.633 2.077 1.819v.205a7.014 7.014 0 00-2.252-.348c-2.045 0-3.456.885-3.456 2.69v.03c0 1.678 1.396 2.578 2.965 2.578zm.539-1.391c-.92 0-1.633-.458-1.633-1.265v-.031c0-.871.73-1.392 1.966-1.392a5.31 5.31 0 011.902.332v.568c0 1.06-.967 1.788-2.235 1.788zm-.254-8.192h1.443l1.95-1.82-1.744-.774-1.649 2.594zm11.38 9.583c1.98 0 3.883-1.565 3.883-4.332v-.033c0-2.783-1.918-4.332-3.884-4.332-1.363 0-2.235.695-2.853 1.566v-4.588h-1.918v11.545h1.918v-1.296c.586.776 1.458 1.47 2.853 1.47zm-.46-1.66c-1.3 0-2.442-1.075-2.442-2.672v-.033c0-1.597 1.142-2.673 2.442-2.673 1.3 0 2.394 1.06 2.394 2.673v.033c0 1.645-1.079 2.671-2.394 2.671zm8.731 1.66c1.284 0 2.156-.537 2.727-1.217v1.043h1.87v-4.95c0-1.09-.285-1.976-.903-2.578-.587-.601-1.522-.933-2.774-.933-1.332 0-2.236.27-3.155.68l.507 1.504c.761-.317 1.459-.523 2.394-.523 1.348 0 2.077.633 2.077 1.819v.205a7.014 7.014 0 00-2.251-.348c-2.045 0-3.456.885-3.456 2.69v.03c0 1.678 1.395 2.578 2.964 2.578zm.54-1.391c-.92 0-1.634-.458-1.634-1.265v-.031c0-.871.73-1.392 1.966-1.392.761 0 1.411.141 1.903.332v.568c0 1.06-.968 1.788-2.236 1.788zM166.313 44.628h1.728l3.424-8.413h-2.013l-2.267 6.136-2.251-6.136h-2.061zM175.108 44.738c1.284 0 2.156-.537 2.727-1.217v1.043h1.87v-4.95c0-1.09-.285-1.976-.903-2.578-.587-.601-1.522-.933-2.774-.933-1.332 0-2.236.27-3.155.68l.507 1.504c.761-.317 1.459-.523 2.394-.523 1.347 0 2.077.633 2.077 1.819v.205a7.014 7.014 0 00-2.251-.348c-2.045 0-3.456.885-3.456 2.69v.03c0 1.678 1.395 2.578 2.964 2.578zm.54-1.391c-.92 0-1.634-.458-1.634-1.265v-.031c0-.871.73-1.392 1.966-1.392a5.31 5.31 0 011.902.332v.568c0 1.06-.967 1.788-2.235 1.788zm5.893 3.527c1.601-.143 2.442-.885 2.442-2.642v-1.85h-2.109v2.182h.824c.064.807-.396 1.298-1.363 1.487l.206.823zm12.933-2.136c1.364 0 2.235-.694 2.854-1.565v1.391h1.917V33.02h-1.917v4.492c-.603-.79-1.476-1.47-2.854-1.47-1.997 0-3.885 1.566-3.885 4.332v.033c0 2.767 1.919 4.332 3.885 4.332zm.46-1.66c-1.3 0-2.41-1.058-2.41-2.672v-.033c0-1.66 1.094-2.673 2.41-2.673 1.284 0 2.425 1.06 2.425 2.673v.033c0 1.597-1.14 2.671-2.425 2.671zm13.058-10.25h-1.489l-1.236 1.06-1.222-1.06h-1.522l1.84 2.327h1.775l1.854-2.326zm-2.505 11.927c1.538 0 2.632-.618 3.426-1.566l-1.127-.997c-.665.649-1.33.997-2.266.997-1.236 0-2.203-.759-2.41-2.12h6.152c.015-.19.031-.364.031-.536 0-2.406-1.347-4.492-4.012-4.492-2.392 0-4.088 1.96-4.088 4.349v.03c0 2.579 1.87 4.335 4.294 4.335zm-2.392-4.95c.174-1.298.997-2.198 2.172-2.198 1.268 0 1.997.964 2.124 2.198h-4.296zm10.934 4.902c.73 0 1.253-.157 1.729-.427v-1.566c-.38.191-.76.285-1.189.285-.65 0-1.031-.301-1.031-1.044V37.86h2.251v-1.645h-2.251v-2.294h-1.918v2.294h-1.063v1.645h1.063v4.396c0 1.835 1 2.451 2.409 2.451zm3.738-9.774h2.06v-1.818h-2.06v1.818zm.08 9.631h1.919v-8.35h-1.919v8.35zM41.277 72.903h4.139c3.487 0 5.897-2.42 5.897-5.535v-.031c0-3.117-2.41-5.506-5.897-5.506h-4.138v11.072zm4.139-9.299c2.33 0 3.852 1.597 3.852 3.764v.031c0 2.167-1.522 3.733-3.852 3.733h-2.188v-7.528h2.188zm12.011 9.49c2.585 0 4.487-1.979 4.487-4.351v-.031c0-2.389-1.887-4.334-4.455-4.334s-4.47 1.978-4.47 4.365v.033c0 2.372 1.886 4.318 4.438 4.318zm.032-1.678c-1.49 0-2.552-1.217-2.552-2.673v-.031c0-1.456.983-2.657 2.52-2.657 1.506 0 2.569 1.218 2.569 2.688v.033c0 1.44-.983 2.64-2.537 2.64zm6.4 1.487h1.918v-4.714c0-1.28.73-2.071 1.792-2.071s1.696.727 1.696 2.024v4.761h1.918v-4.714c0-1.344.745-2.071 1.792-2.071 1.078 0 1.696.711 1.696 2.04v4.745h1.918v-5.33c0-2.04-1.11-3.195-2.933-3.195-1.268 0-2.156.585-2.822 1.472-.443-.887-1.3-1.472-2.504-1.472-1.284 0-2.014.696-2.553 1.439v-1.265H63.86v8.351zm17.466.174c1.284 0 2.156-.537 2.726-1.217v1.043h1.87v-4.95c0-1.091-.285-1.977-.903-2.578-.586-.601-1.522-.933-2.774-.933-1.332 0-2.235.268-3.155.68l.507 1.502c.761-.316 1.459-.521 2.394-.521 1.348 0 2.077.632 2.077 1.819v.205a7.014 7.014 0 00-2.251-.348c-2.045 0-3.456.885-3.456 2.69v.03c0 1.676 1.395 2.578 2.965 2.578zm.539-1.391c-.92 0-1.633-.459-1.633-1.265v-.033c0-.87.729-1.392 1.965-1.392a5.35 5.35 0 011.903.332v.57c0 1.06-.967 1.788-2.235 1.788zm-.254-8.194h1.443l1.95-1.819-1.744-.775-1.65 2.594zm10.474 9.602c1.633 0 2.6-.65 3.424-1.566l-1.157-1.14c-.602.617-1.268 1.028-2.172 1.028-1.474 0-2.505-1.186-2.505-2.673v-.031c0-1.456 1.03-2.657 2.426-2.657.951 0 1.57.427 2.156 1.043l1.205-1.281c-.793-.854-1.776-1.44-3.345-1.44-2.52 0-4.36 1.994-4.36 4.366v.033c0 2.372 1.84 4.318 4.328 4.318zm5.18-.191h1.918v-4.714c0-1.296.776-2.071 1.886-2.071 1.141 0 1.791.744 1.791 2.04v4.745h1.919v-5.33c0-1.93-1.094-3.195-2.98-3.195-1.3 0-2.078.68-2.616 1.455v-1.281h-1.919v8.351zm13.803.19c2.584 0 4.486-1.978 4.486-4.35v-.031c0-2.389-1.886-4.334-4.455-4.334-2.568 0-4.47 1.978-4.47 4.365v.033c0 2.372 1.886 4.318 4.439 4.318zm.031-1.677c-1.49 0-2.552-1.217-2.552-2.673v-.031c0-1.456.983-2.657 2.52-2.657 1.507 0 2.569 1.218 2.569 2.688v.033c0 1.44-.983 2.64-2.537 2.64zm9.27 1.645c1.744 0 3.107-.87 3.107-2.626v-.03c0-1.502-1.38-2.056-2.6-2.436-.983-.317-1.886-.57-1.886-1.186v-.033c0-.473.428-.821 1.173-.821.697 0 1.553.3 2.362.79l.76-1.36c-.887-.585-2.029-.948-3.075-.948-1.664 0-2.98.964-2.98 2.544v.033c0 1.597 1.38 2.103 2.616 2.452.982.3 1.87.522 1.87 1.17v.03c0 .554-.475.903-1.3.903-.856 0-1.823-.349-2.742-1.029l-.856 1.298c1.046.821 2.362 1.249 3.55 1.249zm7.716-.015c.729 0 1.252-.16 1.727-.427v-1.566c-.38.189-.76.284-1.189.284-.65 0-1.03-.3-1.03-1.043v-4.098h2.251v-1.644h-2.25v-2.294h-1.919v2.294h-1.062v1.644h1.062v4.399c0 1.833.999 2.451 2.41 2.451zm3.245 2.167c1.601-.143 2.441-.885 2.441-2.642v-1.85h-2.108v2.182h.824c.063.807-.396 1.296-1.363 1.487l.206.823zm14.247-2.136c1.982 0 3.884-1.566 3.884-4.334v-.031c0-2.783-1.918-4.334-3.884-4.334-1.363 0-2.235.696-2.854 1.565v-4.585h-1.918v11.545h1.918v-1.296c.587.773 1.459 1.47 2.854 1.47zm-.46-1.66c-1.3 0-2.441-1.075-2.441-2.674v-.031c0-1.597 1.141-2.673 2.441-2.673 1.3 0 2.394 1.06 2.394 2.673v.031c0 1.645-1.078 2.673-2.394 2.673zm9.555-.665l-2.362-6.2h-2.061l3.488 8.367c-.317.712-.65.948-1.19.948-.396 0-.776-.126-1.125-.315l-.65 1.423a3.951 3.951 0 001.982.506c1.347 0 2.092-.633 2.758-2.34l3.33-8.59h-1.998l-2.172 6.201zm8.62 2.294c.729 0 1.252-.16 1.727-.427v-1.566c-.38.189-.76.284-1.189.284-.65 0-1.03-.3-1.03-1.043v-4.098h2.251v-1.644H162.8v-2.294h-1.918v2.294h-1.062v1.644h1.062v4.399c0 1.833.998 2.451 2.41 2.451zm7.446.048c2.584 0 4.486-1.979 4.486-4.351v-.031c0-2.389-1.887-4.334-4.455-4.334s-4.47 1.978-4.47 4.365v.033c0 2.372 1.886 4.318 4.439 4.318zm.031-1.678c-1.49 0-2.552-1.217-2.552-2.673v-.031c0-1.456.983-2.657 2.52-2.657 1.507 0 2.569 1.218 2.569 2.688v.033c0 1.44-.983 2.64-2.537 2.64zM179.34 72.967h1.728l3.424-8.415h-2.013l-2.267 6.136-2.251-6.136H175.9zM188.483 63.492h1.443l1.95-1.819-1.744-.775-1.649 2.594zm.998 9.602c1.538 0 2.632-.618 3.426-1.566l-1.127-.997c-.665.649-1.332.997-2.268.997-1.234 0-2.203-.76-2.409-2.12h6.15c.017-.19.034-.364.034-.538 0-2.404-1.349-4.492-4.012-4.492-2.394 0-4.09 1.961-4.09 4.35v.032c0 2.577 1.87 4.334 4.296 4.334zm-2.392-4.952c.172-1.297.997-2.199 2.17-2.199 1.268 0 1.997.967 2.124 2.199h-4.294zm16.338 4.935c1.364 0 2.235-.697 2.854-1.566v1.392h1.919V61.358h-1.919v4.492c-.603-.792-1.474-1.472-2.854-1.472-1.997 0-3.883 1.565-3.883 4.334v.031c0 2.768 1.917 4.334 3.883 4.334zm.46-1.66c-1.3 0-2.41-1.06-2.41-2.674v-.031c0-1.661 1.094-2.673 2.41-2.673 1.284 0 2.425 1.06 2.425 2.673v.031c0 1.599-1.14 2.673-2.425 2.673zm10.697 1.677c2.583 0 4.485-1.979 4.485-4.351v-.031c0-2.389-1.885-4.334-4.454-4.334-2.567 0-4.471 1.978-4.471 4.365v.033c0 2.372 1.887 4.318 4.44 4.318zm.03-1.678c-1.49 0-2.552-1.217-2.552-2.673v-.031c0-1.456.984-2.657 2.522-2.657 1.505 0 2.567 1.218 2.567 2.688v.033c0 1.44-.983 2.64-2.536 2.64zm6.401 4.017h1.919v-3.826c.586.773 1.457 1.47 2.852 1.47 1.983 0 3.885-1.566 3.885-4.334v-.031c0-2.783-1.919-4.334-3.885-4.334-1.363 0-2.235.696-2.852 1.565v-1.391h-1.919v10.881zm4.312-4.017c-1.3 0-2.44-1.074-2.44-2.673v-.031c0-1.597 1.14-2.673 2.44-2.673s2.394 1.06 2.394 2.673v.031c0 1.645-1.079 2.673-2.394 2.673zm12.804-10.249h-1.49l-1.237 1.06-1.22-1.06h-1.521l1.84 2.325h1.774l1.854-2.325zm-6.483 11.736h1.919v-4.714c0-1.296.775-2.071 1.885-2.071 1.141 0 1.792.744 1.792 2.04v4.745h1.918v-5.33c0-1.93-1.093-3.195-2.98-3.195-1.3 0-2.077.68-2.615 1.455v-1.281h-1.919v8.351zM241.472 72.903h1.919v-2.389l1.189-1.232 2.471 3.621h2.252l-3.44-4.95 3.329-3.401h-2.33l-3.471 3.702v-6.896h-1.919zM254.086 70.752l-2.361-6.2h-2.062l3.488 8.367c-.316.712-.65.948-1.19.948-.394 0-.777-.126-1.124-.315l-.65 1.423a3.95 3.95 0 001.98.506c1.35 0 2.094-.633 2.759-2.34l3.33-8.59h-1.998l-2.172 6.201zm-212.808 30.49h1.95v-3.86h2.441l2.727 3.86h2.314l-2.996-4.191c1.538-.444 2.632-1.535 2.632-3.354v-.03c0-.967-.333-1.788-.92-2.39-.713-.696-1.807-1.107-3.202-1.107h-4.946v11.072zm1.95-5.583v-3.718h2.838c1.442 0 2.298.649 2.298 1.835v.031c0 1.124-.888 1.852-2.283 1.852h-2.853zm12.965 5.772c1.538 0 2.631-.616 3.424-1.566l-1.126-.996c-.665.648-1.331.996-2.266.996-1.237 0-2.204-.76-2.41-2.12h6.15c.017-.188.033-.363.033-.537 0-2.403-1.348-4.492-4.011-4.492-2.394 0-4.09 1.962-4.09 4.35v.032c0 2.578 1.87 4.333 4.296 4.333zm-2.394-4.95c.174-1.297.999-2.199 2.172-2.199 1.268 0 1.997.965 2.124 2.198H53.8zm11 4.918c1.743 0 3.106-.869 3.106-2.625v-.031c0-1.504-1.379-2.057-2.6-2.437-.982-.315-1.886-.568-1.886-1.186v-.031c0-.475.428-.823 1.173-.823.698 0 1.554.3 2.362.792l.761-1.36c-.888-.586-2.029-.95-3.075-.95-1.665 0-2.98.964-2.98 2.546v.031c0 1.6 1.379 2.105 2.615 2.453.983.3 1.87.521 1.87 1.17v.031c0 .554-.475.902-1.3.902-.855 0-1.822-.348-2.742-1.028l-.856 1.298c1.047.821 2.362 1.248 3.551 1.248zm7.717-.016c.73 0 1.252-.158 1.728-.425V99.39c-.38.19-.76.286-1.189.286-.65 0-1.03-.3-1.03-1.045v-4.096h2.25v-1.644h-2.25v-2.294h-1.919v2.294h-1.062v1.644h1.062v4.397c0 1.835 1 2.45 2.41 2.45zm6.117.033c1.284 0 2.156-.54 2.726-1.22v1.046h1.87v-4.95c0-1.093-.284-1.979-.903-2.58-.586-.6-1.521-.931-2.774-.931-1.332 0-2.235.267-3.155.678l.508 1.503c.76-.317 1.458-.522 2.393-.522 1.348 0 2.077.632 2.077 1.819v.207a6.964 6.964 0 00-2.251-.349c-2.045 0-3.456.886-3.456 2.688v.033c0 1.676 1.395 2.578 2.965 2.578zm.539-1.392c-.92 0-1.633-.46-1.633-1.267v-.03c0-.87.729-1.392 1.966-1.392.76 0 1.41.143 1.902.332v.57c0 1.06-.967 1.787-2.235 1.787zm9.24 1.392c1.3 0 2.076-.68 2.615-1.472v1.298h1.934V92.89h-1.934v4.713c0 1.296-.777 2.056-1.887 2.056-1.141 0-1.791-.728-1.791-2.025v-4.744h-1.918v5.313c0 1.947 1.094 3.212 2.98 3.212zm6.94-.174h1.918v-3.18c0-2.214 1.174-3.305 2.854-3.305h.11v-2.024c-1.474-.064-2.44.79-2.964 2.039V92.89h-1.918v8.35zm8.558.174c1.284 0 2.156-.54 2.727-1.22v1.046h1.87v-4.95c0-1.093-.285-1.979-.903-2.58-.587-.6-1.522-.931-2.774-.931-1.332 0-2.236.267-3.155.678l.507 1.503c.761-.317 1.459-.522 2.394-.522 1.347 0 2.077.632 2.077 1.819v.207a6.964 6.964 0 00-2.252-.349c-2.045 0-3.456.886-3.456 2.688v.033c0 1.676 1.396 2.578 2.965 2.578zm.539-1.392c-.92 0-1.633-.46-1.633-1.267v-.03c0-.87.73-1.392 1.966-1.392a5.35 5.35 0 011.902.332v.57c0 1.06-.967 1.787-2.235 1.787zm10.223 1.407c1.632 0 2.6-.648 3.424-1.566l-1.158-1.139c-.602.618-1.268 1.029-2.171 1.029-1.475 0-2.505-1.186-2.505-2.673v-.031c0-1.456 1.03-2.659 2.425-2.659.951 0 1.57.427 2.156 1.045l1.205-1.281c-.793-.855-1.775-1.44-3.345-1.44-2.52 0-4.36 1.993-4.36 4.366v.03c0 2.373 1.84 4.319 4.329 4.319zm8.78 0c1.537 0 2.631-.616 3.424-1.566l-1.126-.996c-.666.648-1.332.996-2.267.996-1.236 0-2.203-.76-2.41-2.12h6.151c.016-.188.032-.363.032-.537 0-2.403-1.347-4.492-4.01-4.492-2.395 0-4.09 1.962-4.09 4.35v.032c0 2.578 1.87 4.333 4.295 4.333zm-2.394-4.95c.174-1.297.998-2.199 2.172-2.199 1.268 0 1.997.965 2.124 2.198h-4.296zm7.511 7.069c1.601-.141 2.442-.886 2.442-2.64v-1.852h-2.109v2.184h.824c.064.806-.396 1.296-1.363 1.487l.206.821zM138.047 101.242h1.918v-2.389l1.189-1.234 2.473 3.623h2.251l-3.44-4.95 3.329-3.401h-2.33l-3.472 3.701v-6.897h-1.918zM149.521 101.416c1.284 0 2.156-.54 2.727-1.22v1.046h1.87v-4.95c0-1.093-.285-1.979-.903-2.58-.586-.6-1.522-.931-2.774-.931-1.332 0-2.235.267-3.155.678l.508 1.503c.76-.317 1.458-.522 2.393-.522 1.348 0 2.077.632 2.077 1.819v.207a6.964 6.964 0 00-2.251-.349c-2.045 0-3.456.886-3.456 2.688v.033c0 1.676 1.395 2.578 2.964 2.578zm.54-1.392c-.92 0-1.633-.46-1.633-1.267v-.03c0-.87.729-1.392 1.965-1.392a5.35 5.35 0 011.903.332v.57c0 1.06-.967 1.787-2.236 1.787zM158.745 101.304h1.728l3.424-8.413h-2.013l-2.267 6.136-2.251-6.136h-2.061zM167.54 101.416c1.285 0 2.157-.54 2.728-1.22v1.046h1.87v-4.95c0-1.093-.285-1.979-.903-2.58-.587-.6-1.522-.931-2.775-.931-1.331 0-2.235.267-3.154.678l.507 1.503c.76-.317 1.458-.522 2.394-.522 1.347 0 2.076.632 2.076 1.819v.207a6.964 6.964 0 00-2.25-.349c-2.046 0-3.457.886-3.457 2.688v.033c0 1.676 1.395 2.578 2.965 2.578zm.54-1.392c-.92 0-1.633-.46-1.633-1.267v-.03c0-.87.73-1.392 1.966-1.392a5.35 5.35 0 011.902.332v.57c0 1.06-.967 1.787-2.235 1.787zm-.254-8.193h1.443l1.95-1.819-1.744-.775-1.649 2.594zm6.608 9.41h1.918v-3.178c0-2.215 1.174-3.306 2.854-3.306h.11v-2.024c-1.473-.064-2.44.79-2.964 2.039V92.89h-1.918v8.35zm6.545 0h1.918v-4.713c0-1.296.777-2.072 1.887-2.072 1.141 0 1.79.743 1.79 2.04v4.746h1.919v-5.33c0-1.93-1.094-3.196-2.981-3.196-1.3 0-2.076.68-2.615 1.456v-1.281h-1.918v8.35zm13.218-2.15l-2.362-6.2h-2.06l3.486 8.365c-.316.714-.648.95-1.189.95-.395 0-.775-.126-1.124-.317l-.65 1.424a3.97 3.97 0 001.982.506c1.347 0 2.091-.632 2.758-2.34l3.328-8.588h-1.997l-2.172 6.2zm4.01 4.459c1.6-.141 2.44-.886 2.44-2.64v-1.852h-2.108v2.184h.823c.065.806-.395 1.296-1.363 1.487l.207.821zm13.455-2.12c2.584 0 4.487-1.976 4.487-4.348v-.031c0-2.39-1.887-4.335-4.456-4.335-2.567 0-4.47 1.977-4.47 4.366v.03c0 2.373 1.886 4.319 4.439 4.319zm.031-1.675c-1.488 0-2.55-1.218-2.55-2.673v-.031c0-1.456.98-2.659 2.519-2.659 1.507 0 2.569 1.22 2.569 2.69v.03c0 1.44-.983 2.643-2.538 2.643zm11.175 1.66c1.98 0 3.883-1.565 3.883-4.333v-.031c0-2.785-1.919-4.335-3.883-4.335-1.364 0-2.237.697-2.854 1.566v-4.587h-1.919v11.547h1.919v-1.298c.586.775 1.46 1.472 2.854 1.472zm-.46-1.66c-1.3 0-2.442-1.076-2.442-2.673v-.031c0-1.6 1.141-2.673 2.442-2.673 1.3 0 2.393 1.06 2.393 2.673v.03c0 1.645-1.077 2.674-2.393 2.674zm12.853-10.249h-1.49l-1.235 1.06-1.222-1.06h-1.522l1.84 2.325h1.775l1.854-2.325zm-2.663 11.925c1.634 0 2.6-.648 3.424-1.566l-1.156-1.139c-.603.618-1.268 1.029-2.172 1.029-1.474 0-2.505-1.186-2.505-2.673v-.031c0-1.456 1.031-2.659 2.426-2.659.95 0 1.57.427 2.155 1.045l1.206-1.281c-.794-.855-1.777-1.44-3.346-1.44-2.52 0-4.36 1.993-4.36 4.366v.03c0 2.373 1.84 4.319 4.328 4.319zm8.78 0c1.539 0 2.632-.616 3.424-1.566l-1.124-.996c-.668.648-1.333.996-2.268.996-1.237 0-2.204-.76-2.41-2.12h6.151c.017-.188.032-.363.032-.537 0-2.403-1.347-4.492-4.01-4.492-2.395 0-4.09 1.962-4.09 4.35v.032c0 2.578 1.87 4.333 4.296 4.333zm-2.394-4.95c.175-1.297 1-2.199 2.172-2.199 1.268 0 1.998.965 2.125 2.198h-4.297zm8.13 4.76h1.918v-3.178c0-2.215 1.173-3.306 2.854-3.306h.11v-2.024c-1.473-.064-2.44.79-2.964 2.039V92.89h-1.918v8.35zm9.414.158c1.744 0 3.108-.869 3.108-2.625v-.031c0-1.504-1.38-2.057-2.6-2.437-.984-.315-1.886-.568-1.886-1.186v-.031c0-.475.426-.823 1.172-.823.697 0 1.553.3 2.362.792l.76-1.36c-.887-.586-2.028-.95-3.074-.95-1.665 0-2.98.964-2.98 2.546v.031c0 1.6 1.378 2.105 2.615 2.453.983.3 1.87.521 1.87 1.17v.031c0 .554-.474.902-1.299.902-.856 0-1.823-.348-2.742-1.028l-.856 1.298c1.046.821 2.361 1.248 3.55 1.248zm7.718-.016c.73 0 1.252-.158 1.728-.425V99.39c-.38.19-.76.286-1.19.286-.65 0-1.03-.3-1.03-1.045v-4.096h2.251v-1.644h-2.251v-2.294h-1.917v2.294h-1.062v1.644h1.062v4.397c0 1.835.998 2.45 2.41 2.45zM270.601 101.304h1.728l3.423-8.413h-2.012l-2.268 6.136-2.251-6.136h-2.06zM280.743 101.43c1.538 0 2.632-.615 3.426-1.565l-1.127-.996c-.665.648-1.33.996-2.266.996-1.237 0-2.205-.76-2.41-2.12h6.15c.016-.188.033-.363.033-.537 0-2.403-1.349-4.492-4.012-4.492-2.392 0-4.09 1.962-4.09 4.35v.032c0 2.578 1.87 4.333 4.296 4.333zm-2.392-4.95c.174-1.296.997-2.198 2.172-2.198 1.268 0 1.995.965 2.122 2.198h-4.294zm8.13 4.762h1.918v-4.714c0-1.296.775-2.072 1.885-2.072 1.141 0 1.792.743 1.792 2.04v4.746h1.919v-5.33c0-1.93-1.094-3.196-2.981-3.196-1.3 0-2.077.68-2.615 1.456v-1.281h-1.919v8.35zm10.127-9.411h1.442l1.95-1.819-1.744-.775-1.648 2.594zm-.191 9.41h1.918v-8.35h-1.918v8.35zM41.278 129.58h1.95v-3.212l1.728-1.771 3.789 4.983h2.378l-4.836-6.312 4.629-4.759h-2.409l-5.279 5.566v-5.566h-1.95zM52.672 129.58h1.918v-11.545h-1.918zM60.928 129.77c1.538 0 2.632-.617 3.424-1.566l-1.125-.998c-.666.65-1.332.998-2.267.998-1.237 0-2.204-.76-2.41-2.12h6.151c.016-.19.032-.363.032-.537 0-2.405-1.348-4.492-4.011-4.492-2.394 0-4.09 1.96-4.09 4.349v.031c0 2.578 1.87 4.334 4.296 4.334zm-2.394-4.95c.175-1.299.999-2.2 2.172-2.2 1.268 0 1.998.965 2.124 2.2h-4.296zm8.129 4.76h1.918v-4.713c0-1.298.777-2.072 1.887-2.072 1.141 0 1.791.743 1.791 2.039v4.746h1.918v-5.331c0-1.929-1.094-3.194-2.98-3.194-1.3 0-2.077.68-2.616 1.454v-1.28h-1.918v8.351zm13.804.19c2.584 0 4.487-1.977 4.487-4.35v-.032c0-2.388-1.887-4.333-4.455-4.333s-4.47 1.977-4.47 4.366v.03c0 2.373 1.886 4.318 4.438 4.318zm.032-1.676c-1.49 0-2.552-1.22-2.552-2.673v-.033c0-1.454.982-2.657 2.52-2.657 1.506 0 2.568 1.217 2.568 2.69v.03c0 1.44-.983 2.643-2.536 2.643zm9.207 1.628c.729 0 1.252-.158 1.728-.428v-1.565c-.38.19-.761.284-1.19.284-.65 0-1.03-.299-1.03-1.043v-4.096h2.251v-1.645h-2.25v-2.293h-1.919v2.293h-1.062v1.645h1.062v4.396c0 1.836.999 2.452 2.41 2.452zm7.336-2.294l-2.362-6.199h-2.061l3.487 8.366c-.317.711-.65.95-1.189.95-.396 0-.776-.127-1.125-.317l-.65 1.424a3.97 3.97 0 001.982.506c1.347 0 2.092-.632 2.758-2.341l3.329-8.588h-1.997l-2.172 6.2zm4.007 4.46c1.6-.142 2.441-.885 2.441-2.641v-1.85h-2.108v2.183h.824c.064.805-.396 1.297-1.363 1.486l.206.823zm15.025-14.045h-1.49l-1.237 1.06-1.22-1.06h-1.523l1.84 2.327h1.775l1.855-2.327zm-2.68 11.895c1.744 0 3.108-.87 3.108-2.625v-.033c0-1.502-1.38-2.056-2.6-2.435-.983-.317-1.887-.57-1.887-1.186v-.031c0-.475.428-.824 1.173-.824.698 0 1.554.301 2.362.79l.761-1.358c-.887-.587-2.029-.95-3.075-.95-1.665 0-2.98.965-2.98 2.547v.031c0 1.597 1.379 2.103 2.615 2.451.983.301 1.87.523 1.87 1.172v.031c0 .554-.475.902-1.3.902-.855 0-1.822-.348-2.742-1.028l-.856 1.296c1.047.823 2.363 1.25 3.552 1.25zm5.07 2.373h1.918v-3.829c.586.776 1.458 1.47 2.853 1.47 1.982 0 3.884-1.565 3.884-4.331v-.033c0-2.784-1.918-4.333-3.884-4.333-1.363 0-2.235.695-2.853 1.566v-1.392h-1.918v10.882zm4.312-4.017c-1.3 0-2.442-1.077-2.442-2.673v-.033c0-1.597 1.142-2.672 2.442-2.672 1.3 0 2.393 1.06 2.393 2.672v.033c0 1.644-1.078 2.673-2.393 2.673zm10.158 1.675c1.537 0 2.631-.616 3.424-1.565l-1.126-.998c-.666.65-1.331.998-2.267.998-1.236 0-2.203-.76-2.41-2.12h6.152c.015-.19.031-.363.031-.537 0-2.405-1.347-4.492-4.01-4.492-2.394 0-4.09 1.96-4.09 4.349v.031c0 2.578 1.87 4.334 4.296 4.334zm-2.394-4.95c.174-1.298.998-2.198 2.172-2.198 1.268 0 1.997.964 2.124 2.198h-4.296zm8.129 4.761h1.918v-3.179c0-2.214 1.173-3.305 2.853-3.305h.111v-2.026c-1.474-.062-2.441.792-2.964 2.04v-1.88h-1.918v8.35zM145.212 129.58h1.918v-2.388l1.189-1.234 2.473 3.622h2.251l-3.44-4.952 3.329-3.399h-2.33l-3.472 3.7v-6.895h-1.918zM157.827 127.428l-2.362-6.199h-2.06l3.487 8.366c-.317.711-.65.95-1.189.95-.396 0-.777-.127-1.126-.317l-.65 1.424a3.97 3.97 0 001.982.506c1.348 0 2.093-.632 2.759-2.341l3.329-8.588h-1.998l-2.172 6.2zm-111.254 30.68c3.408 0 5.818-2.61 5.818-5.726v-.032c0-3.116-2.378-5.693-5.786-5.693-3.409 0-5.818 2.609-5.818 5.725v.032c0 3.116 2.377 5.693 5.786 5.693zm.032-1.803c-2.204 0-3.774-1.772-3.774-3.923v-.032c0-2.151 1.538-3.906 3.742-3.906 2.203 0 3.773 1.788 3.773 3.938v.032c0 2.15-1.538 3.89-3.741 3.89zm12.695 1.787c1.982 0 3.884-1.566 3.884-4.334v-.032c0-2.783-1.918-4.334-3.884-4.334-1.363 0-2.235.697-2.854 1.567v-4.586h-1.918v11.545h1.918v-1.297c.587.775 1.459 1.47 2.854 1.47zm-.46-1.661c-1.3 0-2.441-1.075-2.441-2.673v-.032c0-1.597 1.141-2.672 2.441-2.672 1.3 0 2.394 1.06 2.394 2.672v.032c0 1.645-1.078 2.673-2.394 2.673zM65.274 157.918h1.918v-11.546h-1.918zM73.53 158.107c1.538 0 2.632-.616 3.425-1.565l-1.126-.997c-.666.649-1.332.997-2.267.997-1.236 0-2.203-.76-2.41-2.12h6.151c.016-.19.032-.363.032-.537 0-2.404-1.348-4.493-4.01-4.493-2.395 0-4.09 1.962-4.09 4.35v.032c0 2.578 1.87 4.333 4.295 4.333zm-2.393-4.95c.174-1.297.998-2.198 2.171-2.198 1.269 0 1.998.964 2.125 2.198h-4.296zm14.66-6.975h-1.49l-1.236 1.06-1.22-1.06h-1.522l1.839 2.325h1.775l1.855-2.325zm-2.663 11.925c1.633 0 2.6-.648 3.425-1.565l-1.158-1.139c-.602.617-1.268 1.028-2.171 1.028-1.475 0-2.505-1.186-2.505-2.673v-.032c0-1.455 1.03-2.657 2.425-2.657.951 0 1.57.427 2.156 1.044l1.205-1.28c-.793-.854-1.775-1.44-3.345-1.44-2.52 0-4.36 1.993-4.36 4.365v.032c0 2.372 1.84 4.317 4.328 4.317zm8.78 0c1.538 0 2.632-.616 3.424-1.565l-1.125-.997c-.666.649-1.332.997-2.267.997-1.237 0-2.204-.76-2.41-2.12h6.151c.016-.19.032-.363.032-.537 0-2.404-1.348-4.493-4.01-4.493-2.395 0-4.091 1.962-4.091 4.35v.032c0 2.578 1.87 4.333 4.296 4.333zm-2.394-4.95c.175-1.297 1-2.198 2.172-2.198 1.268 0 1.998.964 2.125 2.198H89.52zm8.13 4.76h1.918v-4.713c0-1.296.777-2.071 1.887-2.071 1.141 0 1.791.743 1.791 2.04v4.745h1.919v-5.33c0-1.929-1.094-3.196-2.98-3.196-1.3 0-2.077.68-2.617 1.456v-1.282H97.65v8.352zm10.128-9.41h1.442l1.95-1.82-1.744-.773-1.648 2.593zm-.19 9.41h1.917v-8.35h-1.918v8.35zm11.585.175c1.284 0 2.156-.538 2.727-1.218v1.044h1.87v-4.95c0-1.092-.285-1.978-.903-2.579-.587-.6-1.522-.933-2.775-.933-1.331 0-2.235.27-3.154.68l.507 1.503c.76-.317 1.458-.522 2.394-.522 1.347 0 2.077.632 2.077 1.819v.205a7.01 7.01 0 00-2.252-.348c-2.045 0-3.455.886-3.455 2.69v.03c0 1.677 1.395 2.579 2.964 2.579zm.539-1.392c-.92 0-1.633-.459-1.633-1.265v-.032c0-.87.73-1.392 1.966-1.392.76 0 1.41.142 1.902.332v.57c0 1.06-.967 1.787-2.235 1.787zm11.11 1.218h1.918v-4.714c0-1.28.73-2.071 1.792-2.071s1.696.727 1.696 2.024v4.76h1.918v-4.713c0-1.344.745-2.071 1.792-2.071 1.077 0 1.696.711 1.696 2.04v4.745h1.918v-5.33c0-2.04-1.11-3.196-2.933-3.196-1.268 0-2.156.587-2.822 1.472-.443-.885-1.3-1.472-2.504-1.472-1.285 0-2.014.697-2.553 1.44v-1.266h-1.918v8.352zm18.292-9.411h1.442l1.95-1.82-1.744-.773-1.648 2.593zm.745 9.6c2.584 0 4.486-1.976 4.486-4.349v-.032c0-2.388-1.886-4.334-4.455-4.334-2.568 0-4.47 1.978-4.47 4.366v.032c0 2.372 1.886 4.317 4.439 4.317zm.031-1.676c-1.49 0-2.552-1.218-2.552-2.673v-.032c0-1.455.983-2.657 2.52-2.657 1.507 0 2.569 1.218 2.569 2.69v.03c0 1.44-.983 2.642-2.537 2.642zm9.858 1.66c1.364 0 2.235-.695 2.854-1.565v1.392h1.918v-11.545h-1.918v4.49c-.603-.79-1.475-1.47-2.854-1.47-1.997 0-3.884 1.566-3.884 4.333v.032c0 2.768 1.918 4.334 3.884 4.334zm.46-1.66c-1.3 0-2.41-1.06-2.41-2.673v-.032c0-1.66 1.094-2.672 2.41-2.672 1.284 0 2.425 1.06 2.425 2.672v.032c0 1.598-1.141 2.673-2.425 2.673zm9.128 1.66c1.285 0 2.157-.537 2.727-1.217v1.044h1.87v-4.95c0-1.092-.285-1.978-.903-2.579-.586-.6-1.522-.933-2.774-.933-1.332 0-2.235.27-3.155.68l.507 1.503c.761-.317 1.459-.522 2.394-.522 1.348 0 2.077.632 2.077 1.819v.205a7.01 7.01 0 00-2.251-.348c-2.045 0-3.456.886-3.456 2.69v.03c0 1.677 1.395 2.579 2.964 2.579zm.54-1.391c-.92 0-1.633-.459-1.633-1.265v-.032c0-.87.729-1.392 1.965-1.392.761 0 1.411.142 1.903.332v.57c0 1.06-.967 1.787-2.236 1.787zM45.161 186.414c2.33 0 3.963-1.234 3.963-3.305v-.032c0-1.835-1.205-2.673-3.551-3.242-2.14-.507-2.647-.886-2.647-1.74v-.032c0-.727.665-1.312 1.807-1.312 1.014 0 2.013.395 3.012 1.138l1.046-1.47c-1.125-.902-2.41-1.393-4.026-1.393-2.204 0-3.79 1.313-3.79 3.211v.032c0 2.04 1.332 2.736 3.694 3.305 2.061.475 2.505.902 2.505 1.693v.031c0 .823-.76 1.392-1.966 1.392-1.363 0-2.44-.522-3.503-1.44l-1.173 1.393a6.845 6.845 0 004.629 1.771zM51.311 186.256h1.918V174.71h-1.918zM58.618 186.43c1.3 0 2.077-.68 2.616-1.471v1.297h1.934v-8.351h-1.934v4.713c0 1.297-.777 2.056-1.887 2.056-1.141 0-1.791-.727-1.791-2.024v-4.745h-1.918v5.314c0 1.946 1.093 3.21 2.98 3.21zm12.95-11.91h-1.49l-1.237 1.06-1.22-1.06h-1.522l1.839 2.325h1.775l1.855-2.325zm-6.389 11.736h7.277v-1.566H67.62l4.835-5.472v-1.313h-7.102v1.566h4.66l-4.835 5.472v1.313zm14.029.174c1.981 0 3.884-1.566 3.884-4.334v-.031c0-2.784-1.918-4.334-3.884-4.334-1.364 0-2.236.696-2.854 1.566v-4.587h-1.918v11.546h1.918v-1.297c.587.775 1.459 1.47 2.854 1.47zm-.46-1.66c-1.3 0-2.441-1.076-2.441-2.674v-.031c0-1.598 1.141-2.673 2.441-2.673 1.3 0 2.394 1.06 2.394 2.673v.031c0 1.645-1.078 2.673-2.394 2.673zm9.558-.665l-2.362-6.2h-2.061l3.487 8.367c-.317.711-.65.949-1.189.949-.396 0-.776-.127-1.125-.317l-.65 1.424a3.96 3.96 0 001.982.506c1.347 0 2.092-.633 2.758-2.34l3.329-8.589h-1.997l-2.172 6.2zm12.982 2.325c1.284 0 2.156-.538 2.726-1.218v1.044h1.871v-4.95c0-1.092-.285-1.978-.904-2.579-.586-.6-1.521-.933-2.774-.933-1.332 0-2.235.27-3.155.68l.508 1.503c.76-.316 1.458-.522 2.393-.522 1.348 0 2.077.633 2.077 1.819v.205a7.01 7.01 0 00-2.251-.348c-2.045 0-3.456.886-3.456 2.69v.03c0 1.677 1.395 2.579 2.965 2.579zm.539-1.392c-.92 0-1.633-.459-1.633-1.265v-.032c0-.87.73-1.392 1.966-1.392.76 0 1.41.143 1.902.333v.569c0 1.06-.967 1.787-2.235 1.787zm11.111 1.218h1.918v-3.18c0-2.213 1.173-3.305 2.854-3.305h.11v-2.024c-1.474-.063-2.44.79-2.964 2.04v-1.882h-1.918v8.35zm10.192-9.173c1.014 0 1.839-.791 1.839-1.772 0-.98-.825-1.771-1.84-1.771-1.014 0-1.838.79-1.838 1.771 0 .98.824 1.772 1.839 1.772zm0-.712a1.061 1.061 0 01-1.062-1.06 1.061 1.061 0 012.124 0c0 .585-.476 1.06-1.062 1.06zm-.761 10.059c1.3 0 2.077-.68 2.616-1.471v1.297h1.934v-8.351h-1.934v4.713c0 1.297-.777 2.056-1.887 2.056-1.141 0-1.791-.727-1.791-2.024v-4.745h-1.918v5.314c0 1.946 1.093 3.21 2.98 3.21zM128.93 186.256h7.277v-1.566h-4.835l4.835-5.472v-1.313h-7.102v1.566h4.661l-4.836 5.472zM138.187 186.256h1.918v-4.713c0-1.297.777-2.072 1.887-2.072 1.141 0 1.791.743 1.791 2.04v4.745h1.918v-5.33c0-1.93-1.094-3.195-2.98-3.195-1.3 0-2.077.68-2.616 1.455v-1.281h-1.918v8.35zm12.665-9.41h1.443l1.95-1.82-1.744-.775-1.65 2.594zm.999 9.6c1.537 0 2.631-.617 3.424-1.566l-1.126-.996c-.666.648-1.331.996-2.267.996-1.236 0-2.203-.76-2.41-2.12h6.152c.016-.19.031-.363.031-.537 0-2.404-1.347-4.492-4.01-4.492-2.394 0-4.09 1.961-4.09 4.35v.031c0 2.578 1.87 4.334 4.296 4.334zm-2.394-4.95c.174-1.298.999-2.2 2.172-2.2 1.268 0 1.997.966 2.124 2.2h-4.296zM40.882 214.594h9.099v-1.724h-6.563l6.563-7.908v-1.439h-8.893v1.724h6.341l-6.547 7.908zM55.32 214.768c1.364 0 2.236-.696 2.855-1.566v1.392h1.918v-11.546h-1.918v4.492c-.603-.79-1.475-1.47-2.854-1.47-1.997 0-3.884 1.565-3.884 4.333v.032c0 2.767 1.918 4.333 3.884 4.333zm.46-1.66c-1.3 0-2.409-1.06-2.409-2.673v-.032c0-1.66 1.094-2.673 2.41-2.673 1.284 0 2.425 1.06 2.425 2.673v.032c0 1.597-1.141 2.672-2.425 2.672zm6.72 1.486h1.918v-3.179c0-2.214 1.173-3.305 2.854-3.305h.11v-2.025c-1.474-.063-2.44.79-2.964 2.04v-1.882H62.5v8.351zm8.558.174c1.284 0 2.156-.538 2.726-1.218v1.044h1.871v-4.95c0-1.092-.285-1.977-.903-2.578-.587-.601-1.522-.934-2.775-.934-1.331 0-2.235.27-3.154.68l.507 1.503c.76-.316 1.458-.522 2.394-.522 1.347 0 2.076.633 2.076 1.82v.205a7.01 7.01 0 00-2.25-.348c-2.046 0-3.457.885-3.457 2.688v.032c0 1.677 1.395 2.578 2.965 2.578zm.539-1.392c-.92 0-1.633-.458-1.633-1.265v-.032c0-.87.73-1.391 1.966-1.391.76 0 1.41.142 1.902.332v.569c0 1.06-.967 1.787-2.235 1.787zM80.282 214.657h1.728l3.424-8.414h-2.013l-2.268 6.137-2.251-6.137h-2.06zM87.365 205.184h1.443l1.95-1.82-1.744-.774-1.649 2.594zm-.19 9.41h1.918v-8.35h-1.918v8.35zm11.586.174c1.284 0 2.156-.538 2.727-1.218v1.044h1.87v-4.95c0-1.092-.285-1.977-.903-2.578-.587-.601-1.522-.934-2.775-.934-1.331 0-2.235.27-3.154.68l.507 1.503c.76-.316 1.458-.522 2.394-.522 1.347 0 2.077.633 2.077 1.82v.205a7.01 7.01 0 00-2.252-.348c-2.045 0-3.455.885-3.455 2.688v.032c0 1.677 1.395 2.578 2.964 2.578zm.539-1.392c-.92 0-1.633-.458-1.633-1.265v-.032c0-.87.73-1.391 1.966-1.391.76 0 1.41.142 1.902.332v.569c0 1.06-.967 1.787-2.235 1.787zM110.41 214.594h1.919v-2.388l1.188-1.234 2.474 3.622h2.251l-3.44-4.95 3.329-3.401H115.8l-3.471 3.701v-6.896h-1.919zM119.634 214.594h1.918v-3.179c0-2.214 1.173-3.305 2.854-3.305h.11v-2.025c-1.473-.063-2.44.79-2.964 2.04v-1.882h-1.918v8.351zm8.558.174c1.284 0 2.156-.538 2.727-1.218v1.044h1.87v-4.95c0-1.092-.285-1.977-.903-2.578-.587-.601-1.522-.934-2.774-.934-1.332 0-2.236.27-3.155.68l.507 1.503c.761-.316 1.459-.522 2.394-.522 1.347 0 2.077.633 2.077 1.82v.205a7.01 7.01 0 00-2.251-.348c-2.045 0-3.456.885-3.456 2.688v.032c0 1.677 1.395 2.578 2.964 2.578zm.54-1.392c-.92 0-1.634-.458-1.634-1.265v-.032c0-.87.73-1.391 1.966-1.391.761 0 1.411.142 1.902.332v.569c0 1.06-.967 1.787-2.235 1.787zm-.255-8.192h1.443l1.95-1.82-1.744-.774-1.649 2.594zm9.478 9.568c1.744 0 3.107-.87 3.107-2.625v-.032c0-1.502-1.379-2.056-2.6-2.435-.983-.317-1.886-.57-1.886-1.187v-.031c0-.475.428-.823 1.173-.823.697 0 1.553.3 2.362.791l.761-1.36c-.888-.585-2.03-.95-3.076-.95-1.664 0-2.98.966-2.98 2.547v.032c0 1.597 1.38 2.103 2.616 2.451.983.301 1.87.522 1.87 1.17v.032c0 .554-.475.902-1.3.902-.856 0-1.822-.348-2.742-1.028l-.856 1.297c1.046.822 2.362 1.25 3.551 1.25zm7.48.016c1.284 0 2.156-.538 2.727-1.218v1.044h1.87v-4.95c0-1.092-.285-1.977-.903-2.578-.587-.601-1.522-.934-2.775-.934-1.331 0-2.235.27-3.154.68l.507 1.503c.76-.316 1.458-.522 2.394-.522 1.347 0 2.077.633 2.077 1.82v.205a7.01 7.01 0 00-2.252-.348c-2.045 0-3.455.885-3.455 2.688v.032c0 1.677 1.395 2.578 2.964 2.578zm.54-1.392c-.92 0-1.634-.458-1.634-1.265v-.032c0-.87.73-1.391 1.966-1.391.76 0 1.41.142 1.902.332v.569c0 1.06-.967 1.787-2.235 1.787zM41.278 242.932h8.307v-1.739h-6.357v-2.974h5.564v-1.74h-5.564v-2.878h6.278v-1.74h-8.228zM51.787 242.932h1.918v-11.545h-1.918zM60.045 243.122c1.538 0 2.632-.617 3.424-1.566l-1.125-.996c-.666.648-1.332.996-2.267.996-1.237 0-2.204-.759-2.41-2.12h6.15c.017-.189.033-.363.033-.537 0-2.404-1.348-4.492-4.011-4.492-2.394 0-4.09 1.962-4.09 4.35v.031c0 2.579 1.87 4.334 4.296 4.334zm-2.394-4.95c.174-1.297.999-2.199 2.172-2.199 1.268 0 1.997.965 2.124 2.199h-4.296zM65.782 242.932H67.7v-2.388l1.189-1.234 2.473 3.622h2.252l-3.441-4.95 3.33-3.401h-2.331l-3.472 3.701v-6.895h-1.918zM77.655 243.075c.729 0 1.252-.158 1.728-.427v-1.566c-.38.19-.761.285-1.19.285-.65 0-1.03-.301-1.03-1.044v-4.097h2.251v-1.645h-2.25v-2.293h-1.919v2.293h-1.062v1.645h1.062v4.397c0 1.835.999 2.452 2.41 2.452zm3.708-.143h1.918v-3.179c0-2.214 1.173-3.305 2.853-3.305h.111v-2.025c-1.474-.063-2.44.791-2.964 2.04v-1.882h-1.918v8.351zm10.24.19c2.583 0 4.486-1.977 4.486-4.35v-.031c0-2.388-1.887-4.334-4.455-4.334s-4.47 1.977-4.47 4.366v.031c0 2.373 1.886 4.318 4.438 4.318zm.031-1.676c-1.49 0-2.552-1.218-2.552-2.673v-.032c0-1.455.983-2.657 2.52-2.657 1.506 0 2.569 1.218 2.569 2.689v.031c0 1.44-.983 2.642-2.537 2.642zm5.626 3.795c1.602-.142 2.442-.885 2.442-2.64v-1.851h-2.109v2.182h.825c.063.807-.397 1.297-1.364 1.487l.206.822zM106.739 242.932h1.918v-2.388l1.189-1.234 2.473 3.622h2.251l-3.44-4.95 3.329-3.401h-2.33l-3.472 3.701v-6.895h-1.918zM115.964 242.932h1.918v-4.713c0-1.297.777-2.072 1.887-2.072 1.141 0 1.791.744 1.791 2.04v4.745h1.918v-5.33c0-1.93-1.094-3.195-2.98-3.195-1.3 0-2.077.68-2.616 1.456v-1.282h-1.918v8.351zm9.859-9.632h2.06v-1.819h-2.06v1.82zm.08 9.632h1.917v-8.35h-1.918v8.35zm4.42 0h1.919v-4.713c0-1.297.777-2.072 1.886-2.072 1.142 0 1.792.744 1.792 2.04v4.745h1.918v-5.33c0-1.93-1.094-3.195-2.98-3.195-1.3 0-2.077.68-2.616 1.456v-4.476h-1.918v11.545zm13.22-2.15l-2.361-6.2h-2.061l3.487 8.366c-.317.712-.65.949-1.189.949-.396 0-.776-.126-1.125-.316l-.65 1.423a3.96 3.96 0 001.982.506c1.347 0 2.092-.632 2.758-2.34l3.329-8.589h-1.998l-2.171 6.2zm-98.381 30.647c2.33 0 3.963-1.234 3.963-3.306v-.032c0-1.834-1.205-2.673-3.551-3.242-2.14-.506-2.647-.885-2.647-1.74v-.031c0-.728.665-1.313 1.807-1.313 1.014 0 2.013.395 3.012 1.139l1.046-1.471c-1.125-.902-2.41-1.392-4.026-1.392-2.204 0-3.79 1.313-3.79 3.21v.032c0 2.04 1.332 2.736 3.694 3.306 2.061.474 2.505.901 2.505 1.692v.032c0 .822-.76 1.392-1.966 1.392-1.363 0-2.44-.522-3.503-1.44l-1.173 1.392a6.845 6.845 0 004.629 1.772zm6.034 2.372h1.918v-3.827c.586.775 1.458 1.47 2.854 1.47 1.981 0 3.884-1.565 3.884-4.333v-.032c0-2.783-1.919-4.333-3.884-4.333-1.364 0-2.236.696-2.854 1.565v-1.391h-1.918V273.8zm4.312-4.017c-1.3 0-2.441-1.076-2.441-2.673v-.032c0-1.597 1.14-2.673 2.44-2.673s2.395 1.06 2.395 2.673v.032c0 1.645-1.078 2.673-2.394 2.673zm10.298 1.676c2.584 0 4.487-1.977 4.487-4.35v-.03c0-2.389-1.887-4.334-4.455-4.334s-4.47 1.977-4.47 4.365v.031c0 2.373 1.886 4.318 4.438 4.318zm.032-1.676c-1.49 0-2.552-1.218-2.552-2.673v-.032c0-1.455.983-2.657 2.52-2.657 1.506 0 2.568 1.218 2.568 2.689v.031c0 1.44-.983 2.642-2.536 2.642zm6.398 1.486h1.919v-3.179c0-2.214 1.173-3.305 2.853-3.305h.111v-2.025c-1.474-.063-2.441.791-2.964 2.04v-1.881h-1.919v8.35zm9.348.143c.729 0 1.252-.158 1.728-.427v-1.566c-.38.19-.761.285-1.19.285-.65 0-1.03-.3-1.03-1.044v-4.097h2.251v-1.644h-2.25v-2.294h-1.919v2.294h-1.062v1.644h1.062v4.397c0 1.835.999 2.452 2.41 2.452zm10.869.031c1.284 0 2.156-.537 2.726-1.217v1.043h1.871v-4.95c0-1.091-.285-1.977-.904-2.578-.586-.6-1.521-.933-2.774-.933-1.331 0-2.235.269-3.155.68l.508 1.502c.76-.316 1.458-.521 2.394-.521 1.347 0 2.076.632 2.076 1.818v.206a7.01 7.01 0 00-2.25-.348c-2.046 0-3.457.886-3.457 2.689v.031c0 1.677 1.395 2.578 2.965 2.578zm.539-1.391c-.92 0-1.633-.459-1.633-1.266v-.031c0-.87.73-1.392 1.966-1.392.76 0 1.41.142 1.902.332v.57c0 1.06-.967 1.787-2.235 1.787zm13.976 1.376c1.744 0 3.107-.87 3.107-2.626v-.031c0-1.503-1.379-2.057-2.6-2.436-.983-.317-1.886-.57-1.886-1.186v-.032c0-.474.428-.822 1.173-.822.697 0 1.553.3 2.362.79l.761-1.36c-.888-.585-2.03-.949-3.076-.949-1.664 0-2.98.965-2.98 2.547v.031c0 1.598 1.38 2.104 2.616 2.452.983.3 1.87.522 1.87 1.17v.032c0 .553-.475.901-1.3.901-.856 0-1.823-.348-2.742-1.028l-.856 1.297c1.046.823 2.362 1.25 3.551 1.25zm5.067 2.372h1.918v-3.827c.587.775 1.459 1.47 2.854 1.47 1.981 0 3.884-1.565 3.884-4.333v-.032c0-2.783-1.919-4.333-3.884-4.333-1.364 0-2.236.696-2.854 1.565v-1.391h-1.918V273.8zm4.312-4.017c-1.3 0-2.441-1.076-2.441-2.673v-.032c0-1.597 1.141-2.673 2.44-2.673 1.3 0 2.395 1.06 2.395 2.673v.032c0 1.645-1.078 2.673-2.394 2.673zm10.298 1.676c2.584 0 4.487-1.977 4.487-4.35v-.03c0-2.389-1.887-4.334-4.455-4.334s-4.47 1.977-4.47 4.365v.031c0 2.373 1.886 4.318 4.438 4.318zm.032-1.676c-1.49 0-2.552-1.218-2.552-2.673v-.032c0-1.455.983-2.657 2.52-2.657 1.506 0 2.568 1.218 2.568 2.689v.031c0 1.44-.982 2.642-2.536 2.642zm6.399 1.486h1.918v-3.179c0-2.214 1.173-3.305 2.853-3.305h.111v-2.025c-1.474-.063-2.441.791-2.964 2.04v-1.881h-1.918v8.35zm9.347.143c.729 0 1.252-.158 1.728-.427v-1.566c-.38.19-.761.285-1.19.285-.65 0-1.03-.3-1.03-1.044v-4.097h2.251v-1.644h-2.25v-2.294h-1.919v2.294h-1.062v1.644h1.062v4.397c0 1.835.999 2.452 2.41 2.452zm7.445.047c2.584 0 4.486-1.977 4.486-4.35v-.03c0-2.389-1.887-4.334-4.455-4.334s-4.47 1.977-4.47 4.365v.031c0 2.373 1.886 4.318 4.439 4.318zm.031-1.676c-1.49 0-2.552-1.218-2.552-2.673v-.032c0-1.455.983-2.657 2.52-2.657 1.507 0 2.569 1.218 2.569 2.689v.031c0 1.44-.983 2.642-2.537 2.642zM158.47 271.334h1.728l3.424-8.414h-2.013l-2.267 6.136-2.252-6.136h-2.06zM165.249 271.27h1.918v-4.713c0-1.297.777-2.072 1.886-2.072 1.142 0 1.792.744 1.792 2.04v4.745h1.918v-5.33c0-1.93-1.094-3.194-2.98-3.194-1.3 0-2.077.68-2.616 1.455v-1.281h-1.918v8.35zm10.124-9.41h1.442l1.95-1.819-1.744-.775-1.648 2.594zm-.19 9.41h1.918v-8.35h-1.919v8.35zm9.173 2.531h1.917v-3.827c.588.775 1.459 1.47 2.854 1.47 1.982 0 3.884-1.565 3.884-4.333v-.032c0-2.783-1.918-4.333-3.884-4.333-1.364 0-2.235.696-2.854 1.565v-1.391h-1.917V273.8zm4.311-4.017c-1.3 0-2.44-1.076-2.44-2.673v-.032c0-1.597 1.14-2.673 2.44-2.673s2.395 1.06 2.395 2.673v.032c0 1.645-1.08 2.673-2.395 2.673zm10.298 1.676c2.584 0 4.486-1.977 4.486-4.35v-.03c0-2.389-1.885-4.334-4.454-4.334-2.568 0-4.47 1.977-4.47 4.365v.031c0 2.373 1.886 4.318 4.438 4.318zm.032-1.676c-1.49 0-2.553-1.218-2.553-2.673v-.032c0-1.455.983-2.657 2.521-2.657 1.507 0 2.57 1.218 2.57 2.689v.031c0 1.44-.984 2.642-2.538 2.642zm9.204 1.629c.73 0 1.254-.158 1.73-.427v-1.566c-.383.19-.763.285-1.19.285-.65 0-1.03-.3-1.03-1.044v-4.097h2.251v-1.644h-2.251v-2.294h-1.919v2.294h-1.062v1.644h1.062v4.397c0 1.835.998 2.452 2.41 2.452zm8.794-11.878h-1.49l-1.237 1.06-1.22-1.06h-1.522l1.837 2.325h1.776l1.856-2.325zm-5.089 11.735h1.917v-3.179c0-2.214 1.174-3.305 2.854-3.305h.112v-2.025c-1.476-.063-2.442.791-2.966 2.04v-1.881h-1.917v8.35zm10.093.19c1.536 0 2.631-.616 3.423-1.565l-1.126-.997c-.666.649-1.33.997-2.266.997-1.237 0-2.203-.76-2.411-2.12h6.152c.015-.19.032-.364.032-.538 0-2.404-1.347-4.491-4.012-4.491-2.393 0-4.089 1.96-4.089 4.35v.03c0 2.579 1.87 4.334 4.297 4.334zm-2.395-4.95c.175-1.297.998-2.199 2.172-2.199 1.268 0 1.998.965 2.125 2.199h-4.297zm12.899 4.934c1.98 0 3.883-1.565 3.883-4.333v-.032c0-2.783-1.919-4.333-3.883-4.333-1.364 0-2.237.696-2.854 1.565v-4.586h-1.919v11.545h1.919v-1.296c.586.775 1.459 1.47 2.854 1.47zm-.46-1.66c-1.3 0-2.442-1.076-2.442-2.673v-.032c0-1.597 1.141-2.673 2.442-2.673 1.3 0 2.393 1.06 2.393 2.673v.032c0 1.645-1.077 2.673-2.393 2.673zm9.552-.664l-2.36-6.2h-2.063l3.488 8.366c-.316.712-.65.95-1.189.95-.395 0-.777-.127-1.125-.317l-.65 1.423a3.959 3.959 0 001.98.507c1.35 0 2.094-.633 2.76-2.341l3.33-8.588h-1.998l-2.173 6.2zM44.005 299.609h1.965v-9.268h3.52v-1.804h-9.005v1.804h3.52zM51.927 299.783c1.284 0 2.156-.538 2.727-1.218v1.044h1.87v-4.95c0-1.092-.285-1.978-.903-2.579-.587-.6-1.522-.933-2.774-.933-1.332 0-2.236.269-3.155.68l.507 1.503c.761-.317 1.459-.522 2.394-.522 1.347 0 2.077.632 2.077 1.819v.205a7.01 7.01 0 00-2.251-.348c-2.045 0-3.456.886-3.456 2.689v.032c0 1.676 1.395 2.578 2.964 2.578zm.54-1.392c-.92 0-1.634-.459-1.634-1.265v-.032c0-.87.73-1.392 1.966-1.392.76 0 1.41.142 1.902.332v.57c0 1.06-.967 1.787-2.235 1.787zm11.124 1.392c1.982 0 3.884-1.566 3.884-4.334v-.032c0-2.783-1.918-4.333-3.884-4.333-1.363 0-2.235.696-2.854 1.566v-4.587H58.82v11.546h1.918v-1.297c.587.775 1.459 1.47 2.854 1.47zm-.46-1.661c-1.3 0-2.441-1.075-2.441-2.673v-.032c0-1.597 1.141-2.673 2.441-2.673 1.3 0 2.394 1.06 2.394 2.673v.032c0 1.645-1.078 2.673-2.394 2.673zm8.731 1.66c1.284 0 2.156-.537 2.727-1.217v1.044h1.87v-4.95c0-1.092-.285-1.978-.903-2.579-.587-.6-1.522-.933-2.774-.933-1.332 0-2.236.269-3.155.68l.507 1.503c.761-.317 1.459-.522 2.394-.522 1.348 0 2.077.632 2.077 1.819v.205a7.01 7.01 0 00-2.251-.348c-2.045 0-3.456.886-3.456 2.689v.032c0 1.676 1.395 2.578 2.964 2.578zm.54-1.391c-.92 0-1.634-.459-1.634-1.265v-.032c0-.87.73-1.392 1.966-1.392.761 0 1.411.142 1.902.332v.57c0 1.06-.967 1.787-2.235 1.787zm-.255-8.193h1.443l1.95-1.819-1.744-.775-1.649 2.594zM78.754 299.609h1.919v-2.388l1.189-1.234 2.472 3.622h2.252l-3.44-4.951 3.329-3.4h-2.331l-3.471 3.701v-6.896h-1.919zM44.94 328.026h1.728l4.597-11.15h-2.108l-3.329 8.509-3.345-8.509h-2.156zM55.815 328.137c2.584 0 4.486-1.977 4.486-4.35v-.031c0-2.389-1.886-4.334-4.454-4.334-2.568 0-4.47 1.977-4.47 4.365v.032c0 2.372 1.886 4.318 4.438 4.318zm.032-1.677c-1.49 0-2.553-1.218-2.553-2.673v-.031c0-1.455.983-2.658 2.521-2.658 1.506 0 2.568 1.218 2.568 2.69v.03c0 1.44-.983 2.642-2.536 2.642zM62.362 327.947h1.918v-11.546h-1.918zM66.785 327.947h1.919v-4.713c0-1.297.776-2.072 1.886-2.072 1.141 0 1.791.743 1.791 2.04v4.745H74.3v-5.33c0-1.93-1.094-3.195-2.98-3.195-1.3 0-2.077.68-2.616 1.455v-1.281h-1.919v8.35zm12.667-9.41h1.442l1.95-1.82-1.743-.775-1.65 2.594zm.999 9.6c1.537 0 2.631-.617 3.424-1.566l-1.126-.997c-.666.649-1.331.997-2.267.997-1.236 0-2.203-.76-2.41-2.12h6.151c.016-.19.032-.363.032-.537 0-2.404-1.347-4.492-4.01-4.492-2.394 0-4.09 1.961-4.09 4.35v.031c0 2.578 1.87 4.334 4.296 4.334zm-2.394-4.95c.174-1.298.998-2.2 2.172-2.2 1.268 0 1.997.966 2.124 2.2h-4.296z"/><path fill="#C6D75B" d="M0 24.032h24.086V0H0z"/><path fill="#FCD851" d="M0 52.211h24.086v-24.03H0z"/><path fill="#CDA374" d="M0 80.391h24.086V56.36H0z"/><path fill="#F39400" d="M0 108.57h24.086V84.538H0z"/><path fill="#F6D4C2" d="M0 136.749h24.086v-24.032H0z"/><path fill="#ED8284" d="M0 164.926h24.086v-24.03H0z"/><path fill="#8F6DAD" d="M0 193.106h24.086v-24.031H0z"/><path fill="#80C8BE" d="M0 221.285h24.086v-24.032H0z"/><path fill="#90C2D8" d="M0 249.464h24.086v-24.03H0z"/><path fill="#F29AC2" d="M0 305.821h24.086v-24.032H0z"/><path fill="#5D85C4" d="M0 277.642h24.086v-24.031H0z"/><path fill="#959595" d="M0 334h24.086v-24.032H0z"/></g></svg>