<svg xmlns="http://www.w3.org/2000/svg" width="284" height="71"><path fill-rule="evenodd" fill="#FFF" d="M93.698 38.616l-7.909-11.637H77.79v30.318h9.68V46.389l6.228 9.09 6.181-9.09v10.908h9.682V26.979h-8.001l-7.862 11.637zM124.784 45.842h8.044v-7.544h-8.044v-3.366h8.181v-7.954h-17.863v30.318h18.182v-7.954h-8.5v-3.5zM160.433 45.298a9.858 9.858 0 01-2.045 1.999l5.681 9.999h-11.363l-4.545-7.681v7.681h-9.682V26.979h10.454c1.94 0 3.733.258 5.385.773 1.652.514 3.084 1.272 4.297 2.274a10.42 10.42 0 012.84 3.704c.683 1.469 1.023 3.159 1.023 5.068 0 1.515-.212 2.802-.637 3.862-.424 1.063-.893 1.94-1.408 2.638zm-8.841-9.363c-.803-.517-1.781-.773-2.932-.773h-.499v6.726h.499c1.151 0 2.129-.258 2.932-.773.803-.514 1.204-1.377 1.204-2.59 0-1.213-.401-2.075-1.204-2.59zM186.713 47.343c-.515.302-1.152.576-1.909.818-.758.244-1.62.364-2.59.364-.97 0-1.864-.167-2.682-.501a6.75 6.75 0 01-2.136-1.362 6.376 6.376 0 01-1.431-2.024 5.911 5.911 0 01-.523-2.476c0-.881.166-1.707.5-2.478a6.23 6.23 0 011.385-2.023 6.675 6.675 0 012.069-1.364 6.607 6.607 0 012.59-.5c.91 0 1.719.115 2.432.341.712.227 1.326.464 1.841.704.576.334 1.106.683 1.591 1.046l4.772-8.408c-.818-.576-1.789-1.106-2.908-1.591-.97-.425-2.129-.803-3.478-1.137-1.348-.332-2.885-.499-4.612-.499-2.182 0-4.244.371-6.182 1.113a15.047 15.047 0 00-5.091 3.205c-1.455 1.394-2.607 3.067-3.454 5.022-.849 1.955-1.274 4.145-1.274 6.569 0 2.363.41 4.523 1.228 6.476.817 1.955 1.954 3.628 3.409 5.022 1.455 1.396 3.182 2.478 5.182 3.25 1.999.773 4.181 1.16 6.544 1.16 1.757 0 3.319-.183 4.683-.546 1.362-.362 2.529-.756 3.5-1.18 1.12-.517 2.091-1.107 2.909-1.774l-4.774-8.41a6.9 6.9 0 01-1.591 1.183zM211.113 45.842c0 1.063-.221 1.872-.658 2.434-.44.559-1.175.839-2.205.839s-1.766-.28-2.205-.839c-.439-.562-.658-1.371-.658-2.434V26.979h-9.682v19.273c0 1.999.294 3.742.885 5.228.592 1.484 1.432 2.711 2.524 3.681 1.091.97 2.409 1.696 3.954 2.182 1.545.483 3.273.727 5.182.727 1.909 0 3.636-.244 5.181-.727 1.546-.486 2.872-1.212 3.978-2.182 1.105-.97 1.954-2.197 2.545-3.681.591-1.486.887-3.229.887-5.228V26.979h-9.728v18.863zM248.207 45.298a9.833 9.833 0 01-2.045 1.999l5.682 9.999H240.48l-4.545-7.681v7.681h-9.681V26.979h10.453c1.94 0 3.734.258 5.387.773 1.651.514 3.082 1.272 4.295 2.274a10.41 10.41 0 012.84 3.704c.683 1.469 1.024 3.159 1.024 5.068 0 1.515-.213 2.802-.637 3.862-.425 1.063-.894 1.94-1.409 2.638zm-8.841-9.363c-.803-.517-1.78-.773-2.932-.773h-.499v6.726h.499c1.152 0 2.129-.258 2.932-.773.803-.514 1.205-1.377 1.205-2.59 0-1.213-.402-2.075-1.205-2.59zM268.043 26.979l-3.454 6.41-3.5-6.41h-10.773l9.409 17.272v13.045h9.682V44.251l9.409-17.272h-10.773zM59.559 61.437l.91 7.391-6.572.189-.148 1.21-22.57-.484-22.572.484-.147-1.21-6.573-.189.911-7.391L.149 14.64l17.536.568v-1.424c0-9.098 5.581-13.756 13.318-13.756 7.383 0 13.669 4.484 13.669 13.756v1.424l17.536-.568-2.649 46.797zM38.915 13.784c0-5.538-3.165-8.482-7.956-8.482-4.792 0-7.517 3.208-7.517 8.482v1.613l7.737.25 7.736-.25v-1.613zm8.15 13.24h-8.001L31.201 38.66l-7.908-11.636h-8.001v30.319h9.682v-10.91l6.227 9.092 6.182-9.092v10.91h9.682V27.024z"/></svg>