<svg xmlns="http://www.w3.org/2000/svg" width="75.5" height="75.54" viewBox="0 0 75.5 75.54"><defs><style>.cls-2,.cls-4{fill-rule:evenodd}.cls-2{fill:#ff004f}.cls-4{fill:#00d7cf}</style></defs><path d="M37.755 75.53A37.755 37.755 0 1175.51 37.77a37.723 37.723 0 01-37.755 37.76z" fill-rule="evenodd"/><path id="Path_28" data-name="Path 28" class="cls-2" d="M885.419 7522.05c0 8.55.006 0 .006 7.1-.727.05-6.356-.36-9.86-3.49l.361-.35a18.173 18.173 0 007.822 2.06c0-6.6-.007.31-.007-5.53a14.026 14.026 0 001.678.21z" transform="translate(-829 -7493.84)"/><path id="Path_29" data-name="Path 29" d="M883.741 7521.84c0 5.84.007-1.07.007 5.53a18.173 18.173 0 01-7.822-2.06 10.733 10.733 0 01-2.038-1.43l-.013 13.85c.087 6.26-3.4 12.4-9.934 13.64a14.152 14.152 0 01-6.237-.22 14.3 14.3 0 01-5.306-2.84c-6.176-8.01-1.025-21.95 10.661-21.41 0 4.84.006-.98.006 6.02-6.61-.98-8.816 4.52-7.064 8.46a4.6 4.6 0 001.783 1.99c1.759 3.4 8.127 4.05 10.37-.91a13.357 13.357 0 00.391-3.38v-27.48h5.523a10.551 10.551 0 003.585 6.53 9.234 9.234 0 006.088 3.71z" transform="translate(-829 -7493.84)" fill="#fff" fill-rule="evenodd"/><path id="Path_30" data-name="Path 30" class="cls-4" d="M883.741 7520.26v1.58a9.234 9.234 0 01-6.088-3.71 10.357 10.357 0 006.088 2.13z" transform="translate(-829 -7493.84)"/><path id="Path_31" data-name="Path 31" class="cls-2" d="M875.578 7511.63a12.111 12.111 0 002.075 6.5 10.551 10.551 0 01-3.585-6.53h1.51v.03z" transform="translate(-829 -7493.84)"/><path id="Path_32" data-name="Path 32" class="cls-2" d="M875.926 7525.31l-.361.35-.006 13.84c.087 6.27-3.4 12.41-9.934 13.65a14.159 14.159 0 01-6.244-.21 13.578 13.578 0 01-6.983-4.63 14.3 14.3 0 005.306 2.84 14.152 14.152 0 006.237.22c6.53-1.24 10.021-7.38 9.934-13.64l.013-13.85a10.733 10.733 0 002.038 1.43z" transform="translate(-829 -7493.84)"/><path id="Path_33" data-name="Path 33" class="cls-4" d="M874.068 7511.6h-5.523v27.48a13.357 13.357 0 01-.391 3.38c-2.243 4.96-8.611 4.31-10.37.91a6.008 6.008 0 008.692-2.69 13.216 13.216 0 00.385-3.38v-27.48h7.033a10.734 10.734 0 00.174 1.78z" transform="translate(-829 -7493.84)"/><path id="Path_34" data-name="Path 34" class="cls-2" d="M864.743 7527.07c0 7.62.006 0 .006 7.62-6.61-.96-8.822 4.53-7.064 8.47.031.07.068.14.1.21a4.6 4.6 0 01-1.783-1.99c-1.752-3.94.454-9.44 7.064-8.46 0-7-.006-1.18-.006-6.02a14.234 14.234 0 011.683.17z" transform="translate(-829 -7493.84)"/><path id="Path_35" data-name="Path 35" class="cls-4" d="M863.059 7525.29v1.61c-11.686-.54-16.837 13.4-10.661 21.41-8.998-7.81-3.181-25.21 10.661-23.02z" transform="translate(-829 -7493.84)"/></svg>