<svg xmlns="http://www.w3.org/2000/svg" width="104.47" height="104.5" viewBox="0 0 104.47 104.5"><defs><style>.cls-2{fill-rule:evenodd;fill:#000}</style></defs><path d="M-.012 0h104.484v104.49H-.012V0z" fill-rule="evenodd" fill="none"/><path id="Path_77" data-name="Path 77" class="cls-2" d="M1032.92 1118.21a28.109 28.109 0 00-20.84 9.27 1.859 1.859 0 002.76 2.49 24.349 24.349 0 0136.16 0 1.859 1.859 0 002.76-2.49 28.109 28.109 0 00-20.84-9.27z" transform="translate(-980.688 -1062.44)"/><path id="Path_78" data-name="Path 78" class="cls-2" d="M1051.47 1105.38a44.859 44.859 0 00-51.889 10.83 1.862 1.862 0 002.759 2.5 41.16 41.16 0 0161.16 0 1.862 1.862 0 002.76-2.5 44.878 44.878 0 00-14.79-10.83z" transform="translate(-980.688 -1062.44)"/><path id="Path_79" data-name="Path 79" class="cls-2" d="M1059.09 1088.59a63.286 63.286 0 00-73.2 15.28 1.858 1.858 0 001.381 3.1 1.876 1.876 0 001.381-.61 59.6 59.6 0 0188.543 0 1.859 1.859 0 002.76-2.49 63.122 63.122 0 00-20.865-15.28z" transform="translate(-980.688 -1062.44)"/><path id="Path_80" data-name="Path 80" class="cls-2" d="M1032.92 1150.93a9.42 9.42 0 119.42-9.42 9.41 9.41 0 01-9.42 9.42zm0-3.71a5.705 5.705 0 115.7-5.71 5.7 5.7 0 01-5.7 5.71z" transform="translate(-980.688 -1062.44)"/></svg>