<?xml version="1.0" encoding="UTF-8" standalone="no"?>
<!-- Generator: Adobe Illustrator 26.0.3, SVG Export Plug-In . SVG Version: 6.00 Build 0)  -->

<svg
   version="1.0"
   id="katman_1"
   x="0px"
   y="0px"
   viewBox="0 0 383.89999 209.5"
   xml:space="preserve"
   sodipodi:docname="C&amp;A logo.svg"
   width="383.89999"
   height="209.5"
   inkscape:version="1.1.1 (3bf5ae0d25, 2021-09-20)"
   xmlns:inkscape="http://www.inkscape.org/namespaces/inkscape"
   xmlns:sodipodi="http://sodipodi.sourceforge.net/DTD/sodipodi-0.dtd"
   xmlns="http://www.w3.org/2000/svg"
   xmlns:svg="http://www.w3.org/2000/svg"><defs
   id="defs9" /><sodipodi:namedview
   id="namedview7"
   pagecolor="#ffffff"
   bordercolor="#999999"
   borderopacity="1"
   inkscape:pageshadow="0"
   inkscape:pageopacity="0"
   inkscape:pagecheckerboard="0"
   showgrid="false"
   fit-margin-top="10"
   fit-margin-right="10"
   fit-margin-bottom="10"
   fit-margin-left="10"
   inkscape:zoom="1.5977778"
   inkscape:cx="191.82893"
   inkscape:cy="104.20723"
   inkscape:window-width="1920"
   inkscape:window-height="1001"
   inkscape:window-x="-9"
   inkscape:window-y="-9"
   inkscape:window-maximized="1"
   inkscape:current-layer="katman_1" />
<style
   type="text/css"
   id="style2">
	.st0{fill:#010202;}
</style>
<path
   class="st0"
   d="M 183.6,119.6 168.7,99.1 c -4.3,2.7 -7.2,8.1 -7.2,13.1 0,7.9 4.6,12.5 11.9,12.5 4.5,0 7.3,-2.1 10.2,-5.1 z m -9.8,-43.4 c 0,4.5 1.6,7.4 4.4,11.6 5.1,-2.7 7.6,-6.5 7.6,-11.7 0,-3.5 -1.8,-7.1 -5.6,-7.1 -4,0 -6.4,3.3 -6.4,7.2 z m 16,50.3 c -5.9,4.7 -13,5.8 -18.5,5.8 -13.4,0 -24.2,-7.2 -24.5,-19.3 -0.2,-10.6 9.7,-18 17.8,-20.4 -2.5,-3.3 -4.7,-7.1 -4.7,-12.2 0,-11.8 10,-17.5 20.7,-17.5 10.5,0 18.1,5.8 18.1,15 0,8 -8,13 -15.4,16.2 l 10.1,15 c 3.7,-5.2 6.1,-10.3 7.4,-15.5 0.1,-0.4 0.4,-1.1 1.8,-1.1 h 16.2 c 0.9,0 2,-0.1 1.3,1.8 l -1.9,4.4 c -0.4,0.9 -1,1.3 -1.9,1.3 h -2.2 c -1.8,0 -2.4,1 -3.5,2.6 0,0 -2.3,3.8 -4,6.2 -2.6,3.7 -3.3,4.9 -7.4,9 0,0 3.2,5.4 9.8,5.4 h 2.9 c 0.5,0 2.1,-0.2 1.3,1.6 l -2,4.7 c -0.3,0.7 -0.6,1.3 -1.9,1.3 h -6.5 c 0,0 -8.2,0.6 -13,-4.3 z m 103.1,4.3 -21.9,-72.6 -29.1,72.6 z m 81,54.1 v 10.4 c 0,1.7 -1.1,2.7 -2.8,2.8 h -76.9 c -1.7,0 -2.7,-1.1 -2.7,-2.7 V 185 c 0,-1.7 1.1,-2.7 2.7,-2.7 l 6.4,-0.2 c 5,-0.1 6.2,-2.5 6.3,-4.8 0,-1 -0.2,-2 -0.4,-2.8 -0.5,-2.1 -2.1,-7 -2.1,-7 0,0 -4.5,-14.5 -7.3,-22.4 H 236.2 L 226,170.2 c -1.1,2.6 -1.5,4.6 -1.5,6.2 0,5.3 5,5.6 9.8,5.6 l 5.8,0.1 c 1.6,0 2.7,1 2.7,2.7 v 10.4 c 0,1.7 -1,2.7 -2.7,2.8 h -52 c -1.6,0 -2.7,-1 -2.7,-2.7 v -10.4 c 0,-1.7 1,-2.7 2.7,-2.7 l 1.8,-0.1 c 0,0 5.6,0.2 8.7,-1.4 3.2,-1.6 4.4,-3.6 5.8,-6.8 L 271.2,13.6 c 0.7,-1.8 2.1,-2.4 3.6,-2.4 h 21.3 c 1.8,0 2.9,0.9 3.4,2.4 6.1,17.4 55.8,159.5 55.8,159.6 2.4,6.7 4.7,8.9 12.6,9 h 3.3 c 1.6,-0.1 2.7,1 2.7,2.7 z m -218.7,-37 v 47.4 c 0,1.7 -1.1,2.7 -2.7,2.7 h -10.9 c -1.1,0 -1.9,-0.3 -2.6,-1.7 -0.6,-1.4 -1.8,-3.1 -4.3,-3.1 -6,0 -16.8,6.3 -40.8,6.3 C 39.5,199.5 10,154.5 10,105.1 10,46.7 45.4,10 93.6,10 c 15.3,0 23.8,3.1 28.9,5.2 4.1,1.9 5.9,3.1 8.6,3.1 3.7,0 4.8,-2.1 6.1,-4.9 0.8,-1.6 1.3,-2.2 2.6,-2.2 h 10.8 c 1.6,0 2.7,1.1 2.7,2.8 v 47.4 c 0,1.7 -1,2.7 -2.7,2.7 H 140 c -1.5,0 -2.3,-0.6 -2.7,-2.5 -4,-22.3 -12,-35.8 -36.9,-35.8 -31.4,0 -39,48.6 -39,72.6 0,36.5 4.1,85.3 40.3,85.3 26.2,0 34,-14.9 37.3,-36.1 0.4,-2.1 1.7,-2.4 2.7,-2.4 h 10.7 c 1.6,-0.1 2.8,0.9 2.8,2.7 z"
   id="path4" />
</svg>
