<svg width="155" height="16" viewBox="0 0 155 16" fill="none" xmlns="http://www.w3.org/2000/svg"><path d="M21.784 1.826c0-1.04.68-1.741 1.741-1.741s1.74.7 1.74 1.74v12.35c0 1.04-.679 1.74-1.74 1.74s-1.74-.7-1.74-1.74V1.825zM28.19 2.123c0-1.444.7-2.038 2.186-2.038.722 0 1.359.276 1.74.913l6.09 9.825h.043V1.762c0-1.125.637-1.677 1.674-1.677 1.04 0 1.677.552 1.677 1.677V13.75c0 1.38-.594 2.165-2.059 2.165-1.104 0-1.465-.233-1.91-.934l-6.048-9.55h-.042v8.807c0 1.125-.637 1.677-1.677 1.677s-1.677-.552-1.677-1.677V2.123h.003zM47.132 3.29h-2.48c-.998 0-1.805-.51-1.805-1.464 0-.956.807-1.465 1.804-1.465h8.44c.999 0 1.805.51 1.805 1.465 0 .955-.806 1.464-1.804 1.464H50.61v10.887c0 1.04-.68 1.74-1.74 1.74-1.062 0-1.741-.7-1.741-1.74V3.29h.002zM56.154 2.399c0-1.55.806-2.038 2.035-2.038h7.631c1.02 0 1.762.297 1.762 1.4 0 1.105-.74 1.402-1.762 1.402h-6.187v3.309h5.36c.912 0 1.634.254 1.634 1.337s-.722 1.337-1.635 1.337h-5.36v3.694h6.358c1.019 0 1.762.297 1.762 1.4 0 1.105-.743 1.402-1.762 1.402h-7.8c-1.232 0-2.036-.488-2.036-2.038V2.399zM69.278 2.399c0-1.55.806-2.038 2.037-2.038h5.254c4.14 0 5.24 2.271 5.24 4.243 0 1.655-.976 3.29-2.629 3.672v.042c1.783.255 2.102 1.55 2.102 3.1 0 1.761.467 2.417.467 3.141 0 .807-.828 1.359-1.635 1.359-1.91 0-2.059-1.847-2.059-2.463 0-2.674-.488-3.754-2.399-3.754h-2.9v4.476c0 1.04-.679 1.74-1.74 1.74-1.062 0-1.741-.7-1.741-1.74V2.4h.003zm3.478 4.752h2.94c1.316 0 2.632-.34 2.632-2.06 0-1.634-.997-2.058-2.526-2.058h-3.046V7.15z" fill="#E30613"/><path d="M125.93 2.399c0-1.55.807-2.038 2.038-2.038h5.254c4.137 0 5.24 2.271 5.24 4.243 0 1.655-.976 3.29-2.629 3.672v.042c1.783.255 2.101 1.55 2.101 3.1 0 1.761.467 2.417.467 3.141 0 .807-.827 1.359-1.634 1.359-1.911 0-2.059-1.847-2.059-2.463 0-2.674-.488-3.754-2.399-3.754h-2.897v4.476c0 1.04-.68 1.74-1.741 1.74s-1.741-.7-1.741-1.74V2.4zm3.482 4.752h2.94c1.316 0 2.632-.34 2.632-2.06 0-1.634-.998-2.058-2.526-2.058h-3.046V7.15zM92.129 6.79c3.181.722 3.99 2.611 3.99 4.394 0 2.76-2.08 4.816-6.28 4.816-4.413 0-6.387-2.208-6.387-3.863 0-.85.616-1.444 1.465-1.444 1.889 0 1.4 2.76 4.922 2.76 1.804 0 2.802-.998 2.802-2.017 0-.615-.297-1.295-1.486-1.592l-3.924-.998c-3.16-.806-3.734-2.547-3.734-4.181C83.492 1.274 86.633 0 89.581 0c2.718 0 5.92 1.528 5.92 3.564 0 .87-.743 1.38-1.592 1.38-1.613 0-1.316-2.272-4.564-2.272-1.613 0-2.504.743-2.504 1.804 0 1.062 1.273 1.401 2.374 1.656l2.914.658zM97.645 2.399c0-1.55.807-2.038 2.038-2.038h4.787c2.929 0 5.283 1.443 5.283 4.837 0 2.78-1.932 4.837-5.305 4.837h-3.322v4.137c0 1.04-.679 1.74-1.74 1.74-1.062 0-1.74-.7-1.74-1.74V2.399zm3.479 4.964h2.706c1.401 0 2.439-.849 2.439-2.165 0-1.528-1.083-2.165-2.802-2.165h-2.346v4.33h.003zM117.4 0c5.009 0 6.646 3.333 6.646 7.809 0 4.306-1.424 8.191-6.646 8.191-5.474 0-6.647-3.563-6.647-8.191 0-4.476 1.64-7.809 6.647-7.809zm0 13.198c3.16 0 3.165-2.46 3.165-5.389 0-2.93-.321-5.007-3.165-5.007-2.845 0-3.166 2.08-3.166 5.007 0 2.93-.103 5.389 3.166 5.389zM143.095 3.29h-2.481c-.997 0-1.804-.51-1.804-1.464 0-.956.807-1.465 1.804-1.465h8.441c.997 0 1.804.51 1.804 1.465 0 .955-.807 1.464-1.804 1.464h-2.481v10.887c0 1.04-.679 1.74-1.741 1.74-1.061 0-1.74-.7-1.74-1.74V3.29h.002z" fill="#164196"/><path d="M0 3.614a3.42 3.42 0 116.84 0 3.42 3.42 0 01-6.84 0z" fill="#E30613"/><path d="M3.426 15.767c-.467 0-.847-.414-.847-.924V9.236c0-.509.366-.923.847-.923 5.38 0 5.808-7.283 13.54-7.283.467 0 .846.413.846.923V7.5c0 .51-.38.924-.846.924-5.273 0-5.602 7.341-13.54 7.341z" fill="#164196"/></svg>