<?xml version="1.0" encoding="UTF-8"?>
<svg width="330px" height="396px" viewBox="0 0 330 396" version="1.1" xmlns="http://www.w3.org/2000/svg" xmlns:xlink="http://www.w3.org/1999/xlink">
    <title>D19A218C-0929-4962-96BB-F0912FCFA3AC</title>
    <defs>
        <filter x="-14.3%" y="-30.0%" width="128.6%" height="160.0%" filterUnits="objectBoundingBox" id="filter-1">
            <feGaussianBlur stdDeviation="10" in="SourceGraphic"></feGaussianBlur>
        </filter>
        <linearGradient x1="50%" y1="0%" x2="50%" y2="82.4416794%" id="linearGradient-2">
            <stop stop-color="#FFFFFF" offset="0%"></stop>
            <stop stop-color="#DCDCDC" offset="26.8023724%"></stop>
            <stop stop-color="#FFFFFF" offset="100%"></stop>
        </linearGradient>
        <polygon id="path-3" points="0 0 210 0 210 250 105 220 0 250"></polygon>
        <filter x="-51.4%" y="-24.8%" width="212.4%" height="194.4%" filterUnits="objectBoundingBox" id="filter-4">
            <feOffset dx="10" dy="56" in="SourceAlpha" result="shadowOffsetOuter1"></feOffset>
            <feGaussianBlur stdDeviation="30" in="shadowOffsetOuter1" result="shadowBlurOuter1"></feGaussianBlur>
            <feColorMatrix values="0 0 0 0 0.231233016   0 0 0 0 0.141355357   0 0 0 0 0.0420299494  0 0 0 0.15 0" type="matrix" in="shadowBlurOuter1"></feColorMatrix>
        </filter>
    </defs>
    <g id="Minit-webdesign-v4" stroke="none" stroke-width="1" fill="none" fill-rule="evenodd">
        <g id="Minit_oskar(HD)" transform="translate(-805.000000, 30.000000)">
            <g id="logo" transform="translate(854.999864, 0.000000)">
                <polygon id="Rectangle" fill="#7F7F7F" filter="url(#filter-1)" points="0 0 210 0 190 100 20 100"></polygon>
                <g id="logo_bg">
                    <use fill="black" fill-opacity="1" filter="url(#filter-4)" xlink:href="#path-3"></use>
                    <use fill="url(#linearGradient-2)" fill-rule="evenodd" xlink:href="#path-3"></use>
                </g>
                <g id="minit_logo_orange" transform="translate(25.000000, 45.000000)">
                    <path d="M79.867032,2.07647192e-14 C61.5736986,2.07647192e-14 44.7371689,6.17059361 31.2730594,16.5150685 L11.1598174,10.9976256 L16.6699543,31.0896804 C6.23488584,44.5837443 1.03823596e-14,61.4874886 1.03823596e-14,79.8655708 C1.03823596e-14,123.97589 35.7567123,159.731142 79.867032,159.731142 C123.974429,159.731142 159.731872,123.97589 159.731872,79.8655708 C159.731872,35.7559817 123.974429,2.07647192e-14 79.867032,2.07647192e-14 Z" id="bg" fill="#FF8200" transform="translate(79.865936, 79.865571) scale(-1, -1) translate(-79.865936, -79.865571) "></path>
                    <path d="M113.118393,68.4948311 C113.734283,68.4948311 114.285881,68.6431416 114.770265,68.9404932 C115.250265,69.2334612 115.630174,69.6520913 115.901954,70.1927306 C116.178119,70.7319087 116.31547,71.3485297 116.31547,72.0389406 L116.31547,75.842411 L118.128804,75.842411 C119.009169,75.842411 119.735379,76.0681644 120.311087,76.5211324 C120.889717,76.9733699 121.17684,77.6718174 121.17684,78.621589 C121.17684,79.5669772 120.891909,80.2698082 120.324968,80.7293516 C119.752913,81.1874338 119.02305,81.4212237 118.128804,81.4212237 L116.31547,81.4212237 L116.31547,96.1098082 C116.31547,96.802411 116.178119,97.419032 115.901954,97.95821 C115.630174,98.5017717 115.247342,98.91821 114.759306,99.2148311 C114.268347,99.5099909 113.721863,99.6583014 113.118393,99.6583014 C112.164968,99.6583014 111.399306,99.3295342 110.814831,98.6734612 C110.231087,98.0166575 109.938119,97.1611324 109.938119,96.1098082 L109.938119,81.4212237 L108.512731,81.4212237 C107.67474,81.4212237 107.004055,81.1625936 106.491909,80.6526393 C105.981954,80.1434155 105.724055,79.4661553 105.724055,78.621589 C105.724055,77.8296256 105.991452,77.1706301 106.524055,76.6402192 C107.055927,76.1076164 107.720767,75.842411 108.512731,75.842411 L109.938119,75.842411 L109.938119,72.0389406 C109.938119,70.9890776 110.231087,70.1335525 110.814831,69.4804018 C111.399306,68.822137 112.164968,68.4948311 113.118393,68.4948311 Z M124.131872,95.1124018 C124.440913,95.1124018 124.730228,95.1708493 125.007854,95.2840913 C125.284749,95.4024475 125.529498,95.5653699 125.739178,95.7750502 C125.948128,95.9818082 126.108858,96.2272877 126.225023,96.5056438 C126.340457,96.7818082 126.398904,97.0755068 126.398904,97.3801644 C126.398904,97.790758 126.298082,98.1713973 126.094247,98.516968 C125.88968,98.8661918 125.615708,99.1416256 125.269406,99.3432694 C124.921644,99.5478356 124.542466,99.6479269 124.131872,99.6479269 C123.72274,99.6479269 123.342831,99.5478356 122.995068,99.3432694 C122.648767,99.1416256 122.374064,98.8661918 122.170228,98.516968 C121.969315,98.1713973 121.865571,97.790758 121.865571,97.3801644 C121.865571,96.9695708 121.969315,96.5911233 122.170228,96.2455525 C122.374064,95.89779 122.648767,95.6194338 122.995068,95.41779 C123.342831,95.2161461 123.72274,95.1124018 124.131872,95.1124018 Z M124.131872,95.6661918 C123.904658,95.6661918 123.683288,95.710758 123.472146,95.7984292 C123.259543,95.8875616 123.077626,96.0081096 122.924201,96.1629954 C122.769315,96.3178813 122.646575,96.4990685 122.555982,96.7109406 C122.466849,96.9257352 122.420822,97.147105 122.420822,97.3801644 C122.420822,97.6117626 122.463927,97.8324018 122.552329,98.040621 C122.641461,98.2546849 122.764201,98.4366027 122.92274,98.5936804 C123.079087,98.7522192 123.262466,98.8720365 123.472146,98.9633607 C123.681826,99.051032 123.902466,99.0955982 124.131872,99.0955982 C124.365662,99.0955982 124.588493,99.051032 124.797443,98.9618995 C125.012237,98.8691142 125.196347,98.7463744 125.349041,98.590758 C125.503927,98.4366027 125.627397,98.2546849 125.713607,98.040621 C125.802009,97.8324018 125.845845,97.6103014 125.845845,97.3801644 C125.845845,97.1500274 125.802009,96.9279269 125.710685,96.713863 C125.625936,96.4990685 125.501735,96.3178813 125.349041,96.1644566 C125.193425,96.0132237 125.012237,95.8897534 124.795982,95.8020822 C124.58484,95.710758 124.361279,95.6661918 124.131872,95.6661918 Z M124.20274,96.1936804 C124.482557,96.1936804 124.703196,96.2470137 124.869772,96.3522192 C125.034155,96.4632694 125.118904,96.6481096 125.118904,96.9133151 C125.118904,97.1317626 125.065571,97.2983379 124.961096,97.4071963 C124.854429,97.5189772 124.701735,97.5810776 124.503014,97.5913059 L124.503014,97.5913059 L124.939178,98.3058265 L124.976438,98.4366027 C124.976438,98.5805297 124.882192,98.6528584 124.688584,98.6528584 C124.6221,98.6528584 124.573881,98.6389772 124.532968,98.6134064 L124.532968,98.6134064 L124.440913,98.516968 C124.417534,98.4797078 124.38758,98.4249132 124.35032,98.3555068 L124.35032,98.3555068 L123.960183,97.6292968 L123.773881,97.6292968 L123.773881,98.3555068 C123.773881,98.5542283 123.681826,98.6528584 123.497717,98.6528584 C123.395434,98.6528584 123.323836,98.6287489 123.28,98.5805297 C123.239817,98.5337717 123.220091,98.4585205 123.220091,98.3555068 L123.220091,98.3555068 L123.220091,96.4515799 C123.220091,96.3697534 123.239817,96.307653 123.28,96.2630868 C123.323836,96.21779 123.396164,96.1936804 123.502831,96.1936804 L123.502831,96.1936804 Z M124.237078,96.6349589 L123.773881,96.6349589 L123.773881,97.1821735 L124.237078,97.1821735 C124.348128,97.1821735 124.429954,97.1617169 124.482557,97.123726 C124.538082,97.0871963 124.565845,97.0148676 124.565845,96.9133151 C124.565845,96.807379 124.538082,96.733589 124.482557,96.6926758 C124.426301,96.6539543 124.348128,96.6349589 124.237078,96.6349589 L124.237078,96.6349589 Z M126.281571,50.8094977 C134.355361,50.8094977 140.924128,57.3760731 140.924128,65.4520548 C140.924128,73.5243836 134.355361,80.0938813 126.281571,80.0938813 L124.409059,80.0938813 C123.591525,80.0938813 122.930338,79.4305023 122.930338,78.616621 C122.930338,77.8027397 123.591525,77.1393607 124.409059,77.1393607 L126.281571,77.1393607 C132.726868,77.1393607 137.97326,71.8973516 137.97326,65.4520548 C137.97326,59.006758 132.726868,53.7589041 126.281571,53.7589041 C119.837005,53.7589041 114.591342,59.006758 114.591342,65.4520548 C114.591342,66.2659361 113.929425,66.9285845 113.116274,66.9285845 C112.29947,66.9285845 111.639744,66.2659361 111.639744,65.4520548 C111.639744,57.3760731 118.209242,50.8094977 126.281571,50.8094977 Z M125.732895,56.8818265 C126.096,56.8818265 126.433534,57.0228311 126.688511,57.2778082 C126.946411,57.5320548 127.085954,57.8688584 127.087416,58.2341553 C127.087416,58.5928767 126.948603,58.9355251 126.691434,59.1912329 C124.869333,61.0213699 125.409973,62.0113242 126.92011,64.2747032 C128.359379,66.4336073 130.331251,69.3866667 127.300018,73.2317808 C127.042849,73.5620091 126.657096,73.7497717 126.236274,73.7497717 C125.933808,73.7497717 125.638648,73.6438356 125.400475,73.4568037 C124.812347,72.9979909 124.712986,72.1431963 125.173991,71.5587215 C126.986594,69.2573516 126.063123,67.8736073 124.666228,65.779726 C123.250338,63.6588128 121.312804,60.7525114 124.774356,57.2792694 C125.033717,57.0250228 125.371982,56.8818265 125.732895,56.8818265 Z M120.538813,59.9783014 C120.849315,59.9783014 121.152511,60.084968 121.392146,60.2807671 C121.671963,60.5072511 121.848037,60.8330959 121.888219,61.1896256 C121.923288,61.5490776 121.822466,61.9026849 121.59379,62.1854247 C120.752877,63.2228676 120.983744,63.6188493 122,64.9675251 C123.026484,66.3264292 124.580457,68.381589 122.715982,71.3178447 C122.466849,71.7130959 122.035799,71.9454247 121.570411,71.9454247 C121.313973,71.9454247 121.06484,71.8760183 120.846393,71.7357443 C120.21589,71.3361096 120.027397,70.4966575 120.427032,69.8661553 C121.218265,68.6175708 120.933333,68.0462466 119.841096,66.5996712 C118.818265,65.2488037 117.278904,63.2097169 119.486027,60.4816804 C119.746119,60.162411 120.12968,59.9783014 120.538813,59.9783014 Z M130.79284,59.81421 C131.10042,59.81421 131.400694,59.9172237 131.64179,60.1130228 C131.92526,60.340968 132.09695,60.6653516 132.137863,61.0240731 C132.174393,61.3820639 132.067726,61.7385936 131.842703,62.0176804 C131.001059,63.0587763 131.232658,63.4525662 132.252566,64.8005114 C133.276858,66.1608767 134.826447,68.2182283 132.964895,71.1508311 C132.714301,71.5424292 132.287635,71.7769498 131.820055,71.7769498 C131.565808,71.7769498 131.313753,71.7075434 131.096767,71.568 C130.790648,71.3736621 130.578776,71.0733881 130.499142,70.7219726 C130.420237,70.3669041 130.486721,70.0037991 130.678137,69.6991416 C131.4701,68.4520183 131.181516,67.8806941 130.090009,66.4341187 C129.06937,65.0847123 127.529279,63.041242 129.736402,60.3161279 C129.995032,59.9946667 130.381516,59.81421 130.79284,59.81421 Z M26.3949589,96.1133881 L26.3949589,79.1285479 C26.3949589,78.0757626 26.6871963,77.2224292 27.27021,76.5678174 C27.8554155,75.9110137 28.620347,75.581516 29.5730411,75.581516 C30.3927671,75.581516 31.0590685,75.7933881 31.5726758,76.2105571 C32.0840913,76.6284566 32.3945936,77.2187763 32.5092968,77.9822466 C34.1231781,76.2105571 36.0987032,75.3265388 38.4329498,75.3265388 C41.1098447,75.3265388 43.3096621,76.397589 45.0229041,78.5426119 C45.8740457,77.5796895 46.9326758,76.7986849 48.1987945,76.2105571 C49.4656438,75.6195068 50.6484749,75.3265388 51.7421735,75.3265388 C53.4868311,75.3265388 55.0152329,75.6531142 56.3259178,76.307726 C57.6380639,76.9652603 58.653589,77.9413333 59.3827215,79.2366758 C60.1089315,80.53421 60.4742283,82.0896438 60.4742283,83.9044384 L60.4742283,96.1133881 C60.4742283,96.8045297 60.3376073,97.4233425 60.0629041,97.9610594 C59.7889315,98.5024292 59.4097534,98.918137 58.9180639,99.214758 C58.4300274,99.5099178 57.8813516,99.6589589 57.2764201,99.6589589 C56.3259178,99.6589589 55.5566027,99.3294612 54.973589,98.6770411 C54.3905753,98.020968 54.0997991,97.1632511 54.0997991,96.1133881 L54.0997991,85.0039817 C54.0997991,84.1404201 53.9522192,83.3842557 53.6555982,82.7369498 C53.3618995,82.0896438 52.9315799,81.5774977 52.370484,81.2027032 C51.8071963,80.8264475 51.1460091,80.6423379 50.3818082,80.6423379 C49.2296621,80.6423379 48.3142283,81.0427032 47.636968,81.8397808 C46.9589772,82.6390502 46.6214429,83.6962192 46.6214429,85.0039817 L46.6214429,96.1133881 C46.6214429,96.8045297 46.4848219,97.4233425 46.2101187,97.9610594 C45.9368767,98.5024292 45.5540457,98.918137 45.0660091,99.214758 C44.5757808,99.5099178 44.0278356,99.6589589 43.4243653,99.6589589 C42.4724018,99.6589589 41.7060091,99.3294612 41.1215342,98.6770411 C40.5392511,98.020968 40.2470137,97.1632511 40.2470137,96.1133881 L40.2470137,85.0039817 C40.2470137,84.1404201 40.0987032,83.3842557 39.8035434,82.7369498 C39.5098447,82.0896438 39.0802557,81.5774977 38.516968,81.2027032 C37.9580639,80.8264475 37.2946849,80.6423379 36.5290228,80.6423379 C35.6778813,80.6423379 34.9721279,80.8242557 34.4117626,81.1924749 C33.8506667,81.5599635 33.4349589,82.0669954 33.1697534,82.7143014 C32.9030868,83.3637991 32.7708493,84.1272694 32.7708493,85.0039817 L32.7708493,96.1133881 C32.7708493,96.8045297 32.6334977,97.4233425 32.3587945,97.9610594 C32.0848219,98.5024292 31.7034521,98.918137 31.2146849,99.214758 C30.7251872,99.5099178 30.177242,99.6589589 29.5730411,99.6589589 C28.620347,99.6589589 27.8554155,99.3294612 27.27021,98.6770411 C26.6871963,98.020968 26.3949589,97.1632511 26.3949589,96.1133881 M67.1948128,73.2067215 C68.1884201,73.2067215 69.0351781,72.844347 69.7343562,72.1152146 C70.4328037,71.3890046 70.7834886,70.5261735 70.7834886,69.534758 C70.7834886,68.9422466 70.6169132,68.3774977 70.2866849,67.8353973 C69.9528037,67.294758 69.5137169,66.8607854 68.9665023,66.5290959 C68.4185571,66.1966758 67.8282374,66.0315616 67.1948128,66.0315616 C66.2589224,66.0315616 65.4267763,66.3880913 64.6976438,67.1018813 C63.9721644,67.8120183 63.6068676,68.6280913 63.6068676,69.534758 C63.6068676,70.4837991 63.9721644,71.33421 64.6976438,72.0823379 C65.4267763,72.8319269 66.2589224,73.2067215 67.1948128,73.2067215 M68.8479269,76.027105 C68.3650046,75.7319452 67.8163288,75.5821735 67.1945936,75.5821735 C66.2455525,75.5821735 65.4784292,75.9109406 64.8924932,76.5677443 C64.3094795,77.2223562 64.0201644,78.0756895 64.0201644,79.1284749 L64.0201644,96.1133151 C64.0201644,97.1639087 64.3094795,98.0201644 64.8924932,98.6733151 C65.4784292,99.3301187 66.2455525,99.6588858 67.1945936,99.6588858 C67.8009863,99.6588858 68.3467397,99.5105753 68.8362374,99.2146849 C69.3257352,98.9180639 69.7078356,98.5023562 69.984,97.9609863 C70.257242,97.4232694 70.3931324,96.8044566 70.3931324,96.1133151 L70.3931324,79.1284749 C70.3931324,78.4366027 70.257242,77.8192511 69.984,77.2808037 C69.7078356,76.7416256 69.3301187,76.3222648 68.8479269,76.027105 M73.9370959,96.1133881 L73.9370959,79.1285479 C73.9370959,78.0757626 74.2286027,77.2224292 74.8130776,76.5678174 C75.3975525,75.9110137 76.1617534,75.581516 77.1159087,75.581516 C77.9341735,75.581516 78.6012055,75.7933881 79.1118904,76.2105571 C79.6233059,76.6284566 79.9381918,77.2041644 80.0521644,77.9413333 C81.2905205,76.1959452 83.339105,75.3265388 86.1898813,75.3265388 C87.8636712,75.3265388 89.3599269,75.667726 90.6859543,76.3508311 C92.0105205,77.0353973 93.0472329,78.0216986 93.7975525,79.3133881 C94.5434886,80.6006941 94.9197443,82.1312877 94.9197443,83.9044384 L94.9197443,96.1133881 C94.9197443,96.8045297 94.7831233,97.4233425 94.5076895,97.9610594 C94.2351781,98.5024292 93.8530776,98.918137 93.3643105,99.214758 C92.8733516,99.5099178 92.3275982,99.6589589 91.7233973,99.6589589 C90.7721644,99.6589589 90.0035799,99.3294612 89.4220274,98.6770411 C88.8382831,98.020968 88.5453151,97.1632511 88.5453151,96.1133881 L88.5453151,85.0039817 C88.5453151,83.5785936 88.1610228,82.4958539 87.3909772,81.7521096 C86.6172785,81.0090959 85.6127123,80.6423379 84.3750868,80.6423379 C83.5392877,80.6423379 82.8108858,80.8308311 82.1913425,81.2122009 C81.5717991,81.5957626 81.1049498,82.1101005 80.7856804,82.7574064 C80.4707945,83.4054429 80.3129863,84.155032 80.3129863,85.0039817 L80.3129863,96.1133881 C80.3129863,96.8045297 80.1734429,97.4233425 79.9023927,97.9610594 C79.6276895,98.5024292 79.2470502,98.918137 78.7553607,99.214758 C78.2651324,99.5099178 77.7186484,99.6589589 77.1159087,99.6589589 C76.1617534,99.6589589 75.3975525,99.3294612 74.8130776,98.6770411 C74.2286027,98.020968 73.9370959,97.1632511 73.9370959,96.1133881 M101.640402,73.2067215 C102.633279,73.2067215 103.481498,72.844347 104.182137,72.1152146 C104.879854,71.3890046 105.229808,70.5261735 105.229808,69.534758 C105.229808,68.9422466 105.062502,68.3774977 104.730813,67.8353973 C104.399854,67.294758 103.960037,66.8607854 103.413553,66.5290959 C102.864146,66.1966758 102.275288,66.0315616 101.640402,66.0315616 C100.705242,66.0315616 99.8738265,66.3880913 99.1432329,67.1018813 C98.4155616,67.8120183 98.0539178,68.6280913 98.0539178,69.534758 C98.0539178,70.4837991 98.4155616,71.33421 99.1432329,72.0823379 C99.8738265,72.8319269 100.705242,73.2067215 101.640402,73.2067215 M103.294247,76.027105 C102.810594,75.7319452 102.260457,75.5821735 101.640183,75.5821735 C100.690411,75.5821735 99.9225571,75.9109406 99.3395434,76.5677443 C98.7565297,77.2223562 98.4650228,78.0756895 98.4650228,79.1284749 L98.4650228,96.1133151 C98.4650228,97.1639087 98.7565297,98.0201644 99.3395434,98.6733151 C99.9225571,99.3301187 100.690411,99.6588858 101.640183,99.6588858 C102.245845,99.6588858 102.793059,99.5105753 103.284018,99.2146849 C103.772785,98.9180639 104.155616,98.5023562 104.43032,97.9609863 C104.702831,97.4232694 104.840183,96.8044566 104.840183,96.1133151 L104.840183,79.1284749 C104.840183,78.4366027 104.702831,77.8192511 104.43032,77.2808037 C104.155616,76.7416256 103.774977,76.3222648 103.294247,76.027105" id="txt" fill="#FEFEFE"></path>
                </g>
            </g>
        </g>
    </g>
</svg>