<svg xmlns="http://www.w3.org/2000/svg" width="458" height="305" viewBox="0 0 457.99998 305"><defs><clipPath id="a"><path d="M0 0h841.89v595.276H0V0z"/></clipPath><clipPath id="b"><path d="M0 0h841.89v595.276H0V0z"/></clipPath><clipPath id="c"><path d="M0 0h841.89v595.276H0V0z"/></clipPath><clipPath id="d"><path d="M0 0h841.89v595.276H0V0z"/></clipPath></defs><g clip-path="url(#a)" transform="matrix(1.25 0 0 -1.25 -497.83 666.51)"><path d="M554.832 314.415c-51.58 7.17-92.152 68.085-107.23 125.15-.217-.03-.435-.047-.648-.08-31.85-4.754-39.647-28.803-46.5-60.428-8.896-41.032 8.555-70.26 67.088-84.267 18.483-4.428 36.53-6.244 52.837-5.362 27.11 1.47 48.81 9.696 60.7 26.59-8.935-2.088-18.53-2.678-26.248-1.603" fill="#f089ac"/><path d="M761.75 379.057c-6.85 31.625-14.65 55.673-46.498 60.428-.215.033-.433.05-.648.08-15.08-57.065-55.653-117.98-107.232-125.15-7.716-1.075-17.312-.485-26.245 1.602 11.887-16.893 33.585-25.118 60.7-26.59 16.306-.882 34.35.935 52.836 5.363 58.533 14.007 75.984 43.235 67.086 84.267" fill="#ffde00"/></g><path d="M228.514 271.492l.03-.006-.023-.004-.006.01z" fill="#f08466"/><g clip-path="url(#b)" transform="matrix(1.25 0 0 -1.25 -497.83 666.51)"><path d="M533.61 416.796c4.905 25.035 15.87 50.242 30.28 70.78 5.46 7.78 11.24 14.67 17.213 20.598-15.936 15.813-33.234 24.696-49.41 24.822-15.32.118-30.692-8.176-49.522-19.155-30.567-17.82-42.26-43.232-35.47-70.764.287-1.167.59-2.338.9-3.51 28.906 4.018 64.55-10.91 86.01-22.77" fill="#f08675"/><path d="M565.02 322.074c-27.286 15.79-38.163 41.844-33.248 83.114.46 3.853 1.078 7.728 1.837 11.608-21.458 11.86-57.103 26.788-86.01 22.77 15.08-57.066 55.653-117.98 107.233-125.15 7.716-1.076 17.313-.486 26.246 1.6l.005.01c-5.888 1.378-11.49 3.4-16.064 6.048" fill="#ea5670"/></g><path d="M228.544 271.485l.03.006-.01-.01-.02.005z" fill="#fbbb00"/><g clip-path="url(#c)" transform="matrix(1.25 0 0 -1.25 -497.83 666.51)"><path d="M628.596 416.796c21.457 11.86 57.103 26.788 86.008 22.77.31 1.172.612 2.343.9 3.51 6.79 27.532-4.902 52.943-35.47 70.765-18.832 10.98-34.203 19.274-49.52 19.156-16.18-.126-33.476-9.01-49.41-24.822 5.97-5.927 11.753-12.82 17.212-20.6 14.41-20.536 25.374-45.743 30.28-70.778" fill="#fbbb00"/><path d="M607.373 314.415c51.58 7.17 92.15 68.085 107.23 125.15-28.904 4.02-64.55-10.908-86.007-22.77.76-3.878 1.38-7.754 1.84-11.606 4.914-41.272-5.965-67.326-33.25-83.116-4.576-2.647-10.177-4.67-16.065-6.05l.008-.007c8.933-2.087 18.53-2.677 26.245-1.602" fill="#f7a809"/></g><path d="M228.52 271.482l.024.003.02-.003-.02-.032-.023.032z" fill="#ec6521"/><g clip-path="url(#d)" transform="matrix(1.25 0 0 -1.25 -497.83 666.51)"><path d="M533.61 416.796c3.453-1.91 6.552-3.74 9.18-5.4 14.416-9.083 29.034-23.624 36.583-35.737.58-.935 1.16-1.936 1.73-2.98.57 1.044 1.148 2.045 1.73 2.98 7.548 12.112 22.168 26.653 36.58 35.737 2.63 1.658 5.73 3.49 9.183 5.4-4.906 25.034-15.87 50.24-30.28 70.778-5.46 7.78-11.242 14.672-17.213 20.6-5.972-5.928-11.754-12.82-17.214-20.6-14.41-20.537-25.375-45.744-30.28-70.78" fill="#ec6a20"/><path d="M581.103 372.68c-.57 1.044-1.15 2.045-1.73 2.98-7.55 12.112-22.167 26.652-36.58 35.737-2.63 1.658-5.73 3.49-9.184 5.4-.76-3.88-1.38-7.756-1.838-11.608-4.915-41.272 5.962-67.327 33.25-83.116 4.574-2.647 10.175-4.67 16.063-6.05l.018.026c-.87 1.238-1.693 2.52-2.457 3.854-10.357 18.087-4.695 39.644 2.457 52.775" fill="#e73d41"/><path d="M582.833 375.66c-.582-.935-1.16-1.936-1.73-2.98 7.15-13.132 12.813-34.69 2.456-52.776-.764-1.334-1.587-2.616-2.457-3.854l.017-.025c5.888 1.38 11.49 3.402 16.064 6.05 27.287 15.788 38.165 41.843 33.25 83.114-.46 3.85-1.078 7.727-1.838 11.606-3.453-1.91-6.553-3.74-9.182-5.4-14.414-9.083-29.033-23.624-36.58-35.737" fill="#e95323"/><path d="M581.103 372.68c-7.152-13.132-12.814-34.69-2.457-52.776.764-1.334 1.587-2.616 2.457-3.854.87 1.238 1.693 2.52 2.457 3.854 10.356 18.087 4.693 39.644-2.457 52.775" fill="#e41f25"/><path d="M457.46 396.175l-9.67 3.546v15.5l11.282 1.798v18.164l19.663 2.74c2.096-3.224 3.223-9.187 3.223-16.28v-4.84h22.726v-17.563c-1.934-1.936-6.77-3.55-13.7-3.55-3.223 0-6.768.324-9.026.324v-24.82c0-8.06 2.58-10.48 9.027-10.48 3.706 0 7.414.968 11.604 2.258l3.706-15.312c-7.413-4.514-15.31-6.447-24.82-6.447-14.184 0-24.015 5.64-24.015 23.21v31.752zM508.63 377.315c0 25.793 14.02 42.88 40.774 42.88 15.796 0 29.658-6.772 29.658-24.342 0-14.67-10.156-20.308-27.724-20.308-7.412 0-16.278.964-19.82 2.415 0-12.732 6.768-18.21 19.178-18.21 9.507 0 17.888 2.738 24.818 6.284l5.966-14.667c-7.576-7.092-22.404-10.96-35.62-10.96-24.5 0-37.23 12.895-37.23 36.908m48.35 12.088c.97 2.098 1.29 4.192 1.29 5.805 0 6.287-5.156 9.028-11.605 9.028-8.704 0-13.216-7.093-14.344-14.833h24.66zM593.278 396.175l-9.67 3.546v15.5l11.282 1.798v18.164l19.665 2.74c2.094-3.224 3.222-9.187 3.222-16.28v-4.84h22.726v-17.563c-1.935-1.936-6.768-3.55-13.7-3.55-3.224 0-6.766.324-9.026.324v-24.82c0-8.06 2.58-10.48 9.027-10.48 3.706 0 7.413.968 11.604 2.258l3.707-15.312c-7.412-4.514-15.31-6.447-24.82-6.447-14.185 0-24.017 5.64-24.017 23.21v31.752zM644.9 364.744c0 14.988 10.48 21.757 27.402 21.757 6.445 0 14.024-.966 19.18-2.9v6.288c0 6.932-1.614 10.962-13.377 10.962-6.447 0-15.312-1.13-21.6-3.708l-4.672 13.54c7.574 6.933 19.987 9.51 29.334 9.51 23.694 0 32.396-8.703 32.396-27.08l-.16-29.98 8.218-1.29v-16.6c-3.222-2.096-10.798-3.225-13.054-3.225-7.254 0-12.41.97-15.794 8.866-4.03-6.93-14.025-9.993-23.37-9.993-14.184 0-24.5 7.576-24.5 23.854m46.258-2.095v10.153c-4.514.807-9.833 1.13-14.182 1.13-7.576 0-10.64-3.065-10.64-7.093 0-4.675 2.58-9.188 10.316-9.188 5.963 0 11.442 1.45 14.506 4.997" fill="#fff"/></g></svg>